<?xml version="1.0" encoding="UTF-8"?>
<svg class="animated" version="1.1" viewBox="0 0 500 500" xmlns="http://www.w3.org/2000/svg">
<style>svg#freepik_stories-ecommerce-checkout-laptop:not(.animated) .animable {opacity: 0;}svg#freepik_stories-ecommerce-checkout-laptop.animated #el46wpbis7w0k {animation: 1.9s 1 forwards cubic-bezier(.36,-0.01,.5,1.38) zoomIn;animation-delay: 0s;}svg#freepik_stories-ecommerce-checkout-laptop.animated #el2t8ytqt7d8x {animation: 1.9s 1 forwards cubic-bezier(.36,-0.01,.5,1.38) zoomIn;animation-delay: 0.076s;opacity: 0}svg#freepik_stories-ecommerce-checkout-laptop.animated #elm14361jhfqj {animation: 1.9s 1 forwards cubic-bezier(.36,-0.01,.5,1.38) zoomIn;animation-delay: 0.152s;opacity: 0}svg#freepik_stories-ecommerce-checkout-laptop.animated #elljvv095kyp {animation: 1.9s 1 forwards cubic-bezier(.36,-0.01,.5,1.38) zoomIn;animation-delay: 0.22799999999999998s;opacity: 0}svg#freepik_stories-ecommerce-checkout-laptop.animated #el73yqfqxzuw5 {animation: 1.9s 1 forwards cubic-bezier(.36,-0.01,.5,1.38) zoomIn;animation-delay: 0.304s;opacity: 0}svg#freepik_stories-ecommerce-checkout-laptop.animated #elpqwniqip49 {animation: 1.9s 1 forwards cubic-bezier(.36,-0.01,.5,1.38) zoomIn;animation-delay: 0.38s;opacity: 0}svg#freepik_stories-ecommerce-checkout-laptop.animated #elkexlaptpx3 {animation: 1.9s 1 forwards cubic-bezier(.36,-0.01,.5,1.38) zoomIn;animation-delay: 0.45599999999999996s;opacity: 0}svg#freepik_stories-ecommerce-checkout-laptop.animated #el11kc39oi0mpb {animation: 1.9s 1 forwards cubic-bezier(.36,-0.01,.5,1.38) zoomIn;animation-delay: 0.532s;opacity: 0}svg#freepik_stories-ecommerce-checkout-laptop.animated #elbr3xzagc177 {animation: 1.9s 1 forwards cubic-bezier(.36,-0.01,.5,1.38) zoomIn;animation-delay: 0.608s;opacity: 0}svg#freepik_stories-ecommerce-checkout-laptop.animated #ely8650rcyyjg {animation: 1.9s 1 forwards cubic-bezier(.36,-0.01,.5,1.38) zoomIn;animation-delay: 0.6839999999999999s;opacity: 0}svg#freepik_stories-ecommerce-checkout-laptop.animated #el627bl7g9i2t {animation: 1.9s 1 forwards cubic-bezier(.36,-0.01,.5,1.38) zoomIn;animation-delay: 0.76s;opacity: 0}svg#freepik_stories-ecommerce-checkout-laptop.animated #eltqcd8z3sk9o {animation: 1.9s 1 forwards cubic-bezier(.36,-0.01,.5,1.38) zoomIn;animation-delay: 0.836s;opacity: 0}svg#freepik_stories-ecommerce-checkout-laptop.animated #elgkimhzrmxf {animation: 1.9s 1 forwards cubic-bezier(.36,-0.01,.5,1.38) zoomIn;animation-delay: 0.9119999999999999s;opacity: 0}svg#freepik_stories-ecommerce-checkout-laptop.animated #el44a1pl9o6gn {animation: 1.9s 1 forwards cubic-bezier(.36,-0.01,.5,1.38) zoomIn;animation-delay: 0.988s;opacity: 0}svg#freepik_stories-ecommerce-checkout-laptop.animated #elushkcbi9u9 {animation: 1.9s 1 forwards cubic-bezier(.36,-0.01,.5,1.38) zoomIn;animation-delay: 1.064s;opacity: 0}svg#freepik_stories-ecommerce-checkout-laptop.animated #elna1kakrvo1 {animation: 1.9s 1 forwards cubic-bezier(.36,-0.01,.5,1.38) zoomIn;animation-delay: 1.14s;opacity: 0}svg#freepik_stories-ecommerce-checkout-laptop.animated #elxdpx0b718li {animation: 1.9s 1 forwards cubic-bezier(.36,-0.01,.5,1.38) zoomIn;animation-delay: 1.216s;opacity: 0}svg#freepik_stories-ecommerce-checkout-laptop.animated #elr5f3ppkd61 {animation: 1.9s 1 forwards cubic-bezier(.36,-0.01,.5,1.38) zoomIn;animation-delay: 1.292s;opacity: 0}svg#freepik_stories-ecommerce-checkout-laptop.animated #el6m6t9nzz7bi {animation: 1.9s 1 forwards cubic-bezier(.36,-0.01,.5,1.38) zoomIn;animation-delay: 1.3679999999999999s;opacity: 0}svg#freepik_stories-ecommerce-checkout-laptop.animated #ellei9gc7uxd {animation: 1.9s 1 forwards cubic-bezier(.36,-0.01,.5,1.38) zoomIn;animation-delay: 1.444s;opacity: 0}svg#freepik_stories-ecommerce-checkout-laptop.animated #elwwhhsywvo0p {animation: 1.9s 1 forwards cubic-bezier(.36,-0.01,.5,1.38) zoomIn;animation-delay: 1.52s;opacity: 0}svg#freepik_stories-ecommerce-checkout-laptop.animated #el7znvq81nlgs {animation: 1.9s 1 forwards cubic-bezier(.36,-0.01,.5,1.38) zoomIn;animation-delay: 1.5959999999999999s;opacity: 0}svg#freepik_stories-ecommerce-checkout-laptop.animated #elpgpamtiek6 {animation: 1.9s 1 forwards cubic-bezier(.36,-0.01,.5,1.38) zoomIn;animation-delay: 1.672s;opacity: 0}svg#freepik_stories-ecommerce-checkout-laptop.animated #elpjrzsy2ijre {animation: 1.9s 1 forwards cubic-bezier(.36,-0.01,.5,1.38) zoomIn;animation-delay: 1.748s;opacity: 0}svg#freepik_stories-ecommerce-checkout-laptop.animated #el68uz98w8skv {animation: 1.9s 1 forwards cubic-bezier(.36,-0.01,.5,1.38) zoomIn;animation-delay: 1.8239999999999998s;opacity: 0}svg#freepik_stories-ecommerce-checkout-laptop.animated #freepik--background-complete--inject-19 {animation: 1.9s 1 forwards cubic-bezier(.36,-0.01,.5,1.38) zoomIn;animation-delay: 0s;}svg#freepik_stories-ecommerce-checkout-laptop.animated #freepik--Shadow--inject-19 {animation: 1s 1 forwards cubic-bezier(.36,-0.01,.5,1.38) zoomIn;animation-delay: 0s;}svg#freepik_stories-ecommerce-checkout-laptop.animated #freepik--Device--inject-19 {animation: 1s 1 forwards cubic-bezier(.36,-0.01,.5,1.38) lightSpeedLeft;animation-delay: 0s;}svg#freepik_stories-ecommerce-checkout-laptop.animated #freepik--Tab--inject-19 {animation: 1s 1 forwards cubic-bezier(.36,-0.01,.5,1.38) fadeIn,1.5s Infinite  linear floating;animation-delay: 0s,1s;}svg#freepik_stories-ecommerce-checkout-laptop.animated #freepik--Character--inject-19 {animation: 1s 1 forwards cubic-bezier(.36,-0.01,.5,1.38) slideLeft,1.5s Infinite  linear wind;animation-delay: 0s,1s;}            @keyframes zoomIn {                0% {                    opacity: 0;                    transform: scale(0.5);                }                100% {                    opacity: 1;                    transform: scale(1);                }            }                    @keyframes lightSpeedLeft {              from {                transform: translate3d(-50%, 0, 0) skewX(20deg);                opacity: 0;              }              60% {                transform: skewX(-10deg);                opacity: 1;              }              80% {                transform: skewX(2deg);              }              to {                opacity: 1;                transform: translate3d(0, 0, 0);              }            }                    @keyframes fadeIn {                0% {                    opacity: 0;                }                100% {                    opacity: 1;                }            }                    @keyframes floating {                0% {                    opacity: 1;                    transform: translateY(0px);                }                50% {                    transform: translateY(-10px);                }                100% {                    opacity: 1;                    transform: translateY(0px);                }            }                    @keyframes slideLeft {                0% {                    opacity: 0;                    transform: translateX(-30px);                }                100% {                    opacity: 1;                    transform: translateX(0);                }            }                    @keyframes wind {                0% {                    transform: rotate( 0deg );                }                25% {                    transform: rotate( 1deg );                }                75% {                    transform: rotate( -1deg );                }            }        .animator-hidden { display: none; }</style>
<g class="animable animator-active animator-hidden" style="transform-origin:250px 231.005px 0px">
<rect class="animable" y="382.4" width="500" height=".25" fill="#ebebeb" style="transform-origin:250px 382.525px 0px"/>
<rect class="animable" x="416.78" y="398.49" width="33.12" height=".25" fill="#ebebeb" style="transform-origin:433.34px 398.615px 0px"/>
<rect class="animable" x="322.53" y="401.21" width="8.69" height=".25" fill="#ebebeb" style="transform-origin:326.875px 401.335px 0px"/>
<rect class="animable" x="396.59" y="389.21" width="19.19" height=".25" fill="#ebebeb" style="transform-origin:406.185px 389.335px 0px"/>
<rect class="animable" x="52.46" y="390.89" width="43.19" height=".25" fill="#ebebeb" style="transform-origin:74.055px 391.015px 0px"/>
<rect class="animable" x="104.56" y="390.89" width="6.33" height=".25" fill="#ebebeb" style="transform-origin:107.725px 391.015px 0px"/>
<rect class="animable" x="131.47" y="395.11" width="93.68" height=".25" fill="#ebebeb" style="transform-origin:178.31px 395.235px 0px"/>
<path class="animable" d="M237,337.8H43.91a5.71,5.71,0,0,1-5.7-5.71V60.66A5.71,5.71,0,0,1,43.91,55H237a5.71,5.71,0,0,1,5.71,5.71V332.09A5.71,5.71,0,0,1,237,337.8ZM43.91,55.2a5.46,5.46,0,0,0-5.45,5.46V332.09a5.46,5.46,0,0,0,5.45,5.46H237a5.47,5.47,0,0,0,5.46-5.46V60.66A5.47,5.47,0,0,0,237,55.2Z" fill="#ebebeb" style="transform-origin:140.46px 196.4px 0px"/>
<path class="animable" d="M453.31,337.8H260.21a5.72,5.72,0,0,1-5.71-5.71V60.66A5.72,5.72,0,0,1,260.21,55h193.1A5.71,5.71,0,0,1,459,60.66V332.09A5.71,5.71,0,0,1,453.31,337.8ZM260.21,55.2a5.47,5.47,0,0,0-5.46,5.46V332.09a5.47,5.47,0,0,0,5.46,5.46h193.1a5.47,5.47,0,0,0,5.46-5.46V60.66a5.47,5.47,0,0,0-5.46-5.46Z" fill="#ebebeb" style="transform-origin:356.75px 196.4px 0px"/>
<rect class="animable" x="49.78" y="371.41" width="58.09" height="35.6" rx="4.22" fill="#ebebeb" style="transform-origin:78.825px 389.21px 0px"/>
<path class="animable" d="M67.7,385.56H54.91a.82.82,0,0,1-.82-.82h0a.83.83,0,0,1,.82-.83H67.7a.83.83,0,0,1,.83.83h0A.83.83,0,0,1,67.7,385.56Z" fill="#fafafa" style="isolation:isolate;transform-origin:61.31px 384.735px 0px"/>
<path class="animable" d="M103.91,376.83H91.12a.83.83,0,0,1-.82-.83h0a.83.83,0,0,1,.82-.83h12.79a.83.83,0,0,1,.83.83h0A.83.83,0,0,1,103.91,376.83Z" fill="#fafafa" style="isolation:isolate;transform-origin:97.52px 376px 0px"/>
<path class="animable" d="M67.7,403H54.91a.83.83,0,0,1-.82-.83h0a.83.83,0,0,1,.82-.83H67.7a.83.83,0,0,1,.83.83h0A.83.83,0,0,1,67.7,403Z" fill="#fafafa" style="isolation:isolate;transform-origin:61.31px 402.17px 0px"/>
<path class="animable" d="M58.28,389.65H54.91a.83.83,0,0,1-.82-.83h0a.82.82,0,0,1,.82-.82h3.37a.82.82,0,0,1,.82.82h0A.83.83,0,0,1,58.28,389.65Z" fill="#fafafa" style="isolation:isolate;transform-origin:56.595px 388.825px 0px"/>
<rect class="animable" x="90.5" y="394.47" width="14.03" height="10.04" rx="1.71" fill="#e0e0e0" style="isolation:isolate;transform-origin:97.515px 399.49px 0px"/>
<rect class="animable" x="81.39" y="86.58" width="76.2" height="46.7" rx="4.22" fill="#ebebeb" style="transform-origin:119.49px 109.93px 0px"/>
<path class="animable" d="m104.9 105.15h-16.77a1.09 1.09 0 0 1-1.13-1.08 1.09 1.09 0 0 1 1.13-1.07h16.77a1.09 1.09 0 0 1 1.09 1.09 1.09 1.09 0 0 1-1.09 1.06z" fill="#fafafa" style="isolation:isolate;transform-origin:96.495px 104.075px 0px"/>
<path class="animable" d="m152.41 93.69h-16.78a1.08 1.08 0 0 1-1.08-1.09 1.08 1.08 0 0 1 1.08-1.08h16.78a1.08 1.08 0 0 1 1.08 1.08 1.08 1.08 0 0 1-1.08 1.09z" fill="#fafafa" style="isolation:isolate;transform-origin:144.02px 92.605px 0px"/>
<rect class="animable" x="87.04" y="125.84" width="18.95" height="2.17" rx=".79" fill="#fafafa" style="isolation:isolate;transform-origin:96.515px 126.925px 0px"/>
<path class="animable" d="m92.54 110.51h-4.41a1.09 1.09 0 0 1-1.13-1.09 1.09 1.09 0 0 1 1.09-1.08h4.41a1.08 1.08 0 0 1 1.08 1.08 1.08 1.08 0 0 1-1.04 1.09z" fill="#fafafa" style="isolation:isolate;transform-origin:90.29px 109.425px 0px"/>
<rect class="animable" x="134.82" y="116.84" width="18.4" height="13.17" rx="1.71" fill="#e0e0e0" style="isolation:isolate;transform-origin:144.02px 123.425px 0px"/>
<path class="animable" d="m304.88 115.19v5.41h-4v-5.36c-4.73-0.29-9.31-1.83-11.82-4l2.17-4.87a18.53 18.53 0 0 0 9.65 3.67v-9.65c-5.36-1.31-11.1-3-11.1-9.75 0-4.92 3.57-9.22 11.1-9.94v-5.47h4v5.36a20.71 20.71 0 0 1 9.79 2.94l-2 4.88a19.89 19.89 0 0 0-7.81-2.61v9.75c5.35 1.3 11.19 3 11.19 9.7 0.02 4.92-3.6 9.17-11.17 9.94zm-4-20.65v-8.54c-3.43 0.53-4.87 2.26-4.87 4.39 0.04 2.26 2.11 3.33 4.91 4.15zm9 11.14c0-2.36-2.13-3.47-5-4.29v8.54c3.52-0.53 5.02-2.17 5.02-4.25z" fill="#e0e0e0" style="transform-origin:302.555px 97.915px 0px"/>
<path class="animable" d="m430.12 348.29v4.12h-3v-4.09c-3.6-0.22-7.1-1.4-9-3.05l1.65-3.72a14.14 14.14 0 0 0 7.36 2.8v-7.35c-4.08-1-8.46-2.32-8.46-7.43 0-3.75 2.72-7 8.46-7.58v-4.15h3v4.08a15.91 15.91 0 0 1 7.47 2.24l-1.51 3.72a15.23 15.23 0 0 0-6-2v7.43c4.08 1 8.53 2.28 8.53 7.4 0.03 3.75-2.73 6.99-8.5 7.58zm-3-15.75v-6.54c-2.61 0.41-3.71 1.73-3.71 3.35-0.02 1.76 1.59 2.57 3.69 3.19zm6.84 8.5c0-1.8-1.61-2.65-3.82-3.28v6.52c2.66-0.41 3.8-1.66 3.8-3.28z" fill="#e0e0e0" style="transform-origin:428.37px 335.125px 0px"/>
<path class="animable" d="M53.64,307.63a7.36,7.36,0,0,1-2-5.46,8.24,8.24,0,0,1,.92-4,6.24,6.24,0,0,1,2.53-2.56,8.07,8.07,0,0,1,7.29,0,6.32,6.32,0,0,1,2.54,2.56,8.35,8.35,0,0,1,.91,4,7.39,7.39,0,0,1-2,5.46,7.58,7.58,0,0,1-10.22,0Zm20.78-12.51h6.45L62.64,321.81H56.19ZM60,304.71a7.07,7.07,0,0,0,0-5.07,1.32,1.32,0,0,0-2.41,0,7.07,7.07,0,0,0,0,5.07,1.32,1.32,0,0,0,2.41,0Zm13.25,15.5a7.37,7.37,0,0,1-2-5.45,8.28,8.28,0,0,1,.91-4,6.18,6.18,0,0,1,2.54-2.55,8,8,0,0,1,7.28,0,6.18,6.18,0,0,1,2.54,2.55,8.28,8.28,0,0,1,.92,4,7.38,7.38,0,0,1-2,5.45,7.56,7.56,0,0,1-10.22,0Zm6.31-2.92a6.93,6.93,0,0,0,0-5.07,1.31,1.31,0,0,0-2.4,0,6.93,6.93,0,0,0,0,5.07,1.31,1.31,0,0,0,2.4,0Z" fill="#e0e0e0" style="transform-origin:68.5395px 308.469px 0px"/>
<path class="animable" d="M380.48,158.1a10.49,10.49,0,0,1-2.81-7.74,11.69,11.69,0,0,1,1.3-5.69,8.78,8.78,0,0,1,3.6-3.62,11.4,11.4,0,0,1,10.34,0,8.9,8.9,0,0,1,3.6,3.62,11.81,11.81,0,0,1,1.29,5.69A10.45,10.45,0,0,1,395,158.1a10.77,10.77,0,0,1-14.51,0ZM410,140.34h9.15l-25.87,37.89h-9.15ZM389.44,154a9.87,9.87,0,0,0,0-7.2,1.86,1.86,0,0,0-3.41,0,10,10,0,0,0,0,7.2,1.86,1.86,0,0,0,3.41,0Zm18.81,22a10.49,10.49,0,0,1-2.81-7.74,11.65,11.65,0,0,1,1.3-5.68,8.75,8.75,0,0,1,3.6-3.63,11.38,11.38,0,0,1,10.33,0,8.75,8.75,0,0,1,3.6,3.63,11.65,11.65,0,0,1,1.3,5.68,10.45,10.45,0,0,1-2.81,7.74,10.74,10.74,0,0,1-14.51,0Zm9-4.14a9.87,9.87,0,0,0,0-7.2,1.86,1.86,0,0,0-3.41,0,9.87,9.87,0,0,0,0,7.2,1.86,1.86,0,0,0,3.41,0Z" fill="#e0e0e0" style="transform-origin:401.62px 159.316px 0px"/>
</g>
<g class="animable" style="transform-origin:250px 416.24px 0px">
<ellipse class="animable" cx="250" cy="416.24" rx="193.89" ry="11.32" fill="#f5f5f5" style="transform-origin:250px 416.24px 0px"/>
</g>
<g class="animable" style="transform-origin:251.885px 295.085px 0px">
<path class="animable" d="M410.5,173.94H93.26a13.21,13.21,0,0,0-13.21,13.21v201a13.22,13.22,0,0,0,13.21,13.22h42.11v-6.44a3.43,3.43,0,0,1,3.43-3.43H365a3.42,3.42,0,0,1,3.43,3.43v6.44H410.5a13.21,13.21,0,0,0,13.21-13.22v-201A13.2,13.2,0,0,0,410.5,173.94Z" fill="#263238" style="transform-origin:251.88px 287.655px 0px"/>
<path class="animable" d="M410.5,173.94H93.26a13.21,13.21,0,0,0-13.21,13.21v201a13.22,13.22,0,0,0,13.21,13.22h42.11v-6.44a3.43,3.43,0,0,1,3.43-3.43H365a3.42,3.42,0,0,1,3.43,3.43v6.44H410.5a13.21,13.21,0,0,0,13.21-13.22v-201A13.2,13.2,0,0,0,410.5,173.94Z" fill="#fff" opacity=".2" style="transform-origin:251.88px 287.655px 0px"/>
<path class="animable" d="m254.66 182.59a2.78 2.78 0 1 1-2.78-2.78 2.77 2.77 0 0 1 2.78 2.78z" fill="#0D6EFD" style="transform-origin:251.88px 182.59px 0px"/>
<rect class="animable" x="54.09" y="396.43" width="395.59" height="9.9" fill="#263238" style="transform-origin:251.885px 401.38px 0px"/>
<rect class="animable" x="54.09" y="396.43" width="395.59" height="9.9" fill="#fff" opacity=".5" style="transform-origin:251.885px 401.38px 0px"/>
<path class="animable" d="m54.09 406.33 6.12 4.9a22.74 22.74 0 0 0 14.23 5h354.88a22.74 22.74 0 0 0 14.23-5l6.13-4.9z" fill="#263238" style="transform-origin:251.885px 411.28px 0px"/>
<path class="animable" d="m54.09 406.33 6.12 4.9a22.74 22.74 0 0 0 14.23 5h354.88a22.74 22.74 0 0 0 14.23-5l6.13-4.9z" fill="#fff" opacity=".3" style="transform-origin:251.885px 411.28px 0px"/>
<path class="animable" d="m213.87 396.75a4.62 4.62 0 0 0 4.62 4.63h66.78a4.62 4.62 0 0 0 4.62-4.63v-0.32h-76c0 0.11-0.02 0.21-0.02 0.32z" fill="#fff" opacity=".4" style="transform-origin:251.88px 398.905px 0px"/>
<rect class="animable" x="94.59" y="194.17" width="313.67" height="178.52" fill="#0D6EFD" style="transform-origin:251.425px 283.43px 0px"/>
<g class="animable" opacity=".9" style="transform-origin:251.425px 283.43px 0px">
<rect class="animable" x="94.59" y="194.17" width="313.67" height="178.52" fill="#fff" style="transform-origin:251.425px 283.43px 0px"/>
</g>
<rect class="animable" x="136.31" y="222.72" width="226.66" height="7.5" fill="#0D6EFD" style="transform-origin:249.64px 226.47px 0px"/>
<g class="animable" opacity=".8" style="transform-origin:249.64px 226.47px 0px">
<rect class="animable" x="136.31" y="222.72" width="226.66" height="7.5" fill="#fff" style="transform-origin:249.64px 226.47px 0px"/>
</g>
<rect class="animable" x="362.96" y="222.72" width="8.12" height="7.5" fill="#0D6EFD" style="transform-origin:367.02px 226.47px 0px"/>
<g class="animable" opacity=".5" style="transform-origin:367.02px 226.47px 0px">
<rect class="animable" x="362.96" y="222.72" width="8.12" height="7.5" fill="#fff" style="transform-origin:367.02px 226.47px 0px"/>
</g>
<rect class="animable" x="94.59" y="194.17" width="313.67" height="8.48" fill="#0D6EFD" style="transform-origin:251.425px 198.41px 0px"/>
<path class="animable" d="m385.71 198.41a2.44 2.44 0 1 1-2.43-2.43 2.43 2.43 0 0 1 2.43 2.43z" fill="#fff" style="transform-origin:383.27px 198.42px 0px"/>
<path class="animable" d="m395.05 198.41a2.44 2.44 0 1 1-2.44-2.43 2.43 2.43 0 0 1 2.44 2.43z" fill="#fff" style="transform-origin:392.61px 198.42px 0px"/>
<path class="animable" d="m404.38 198.41a2.43 2.43 0 1 1-2.38-2.41 2.43 2.43 0 0 1 2.38 2.41z" fill="#fff" style="transform-origin:401.95px 198.43px 0px"/>
<path class="animable" d="M101.61,229.6a4.08,4.08,0,0,1-1.22-.48l.68-1.55a4.37,4.37,0,0,0,1,.42,3.75,3.75,0,0,0,1.07.16,1.63,1.63,0,0,0,.64-.09.27.27,0,0,0,.19-.25.32.32,0,0,0-.25-.3,5.2,5.2,0,0,0-.82-.22,8.66,8.66,0,0,1-1.22-.33,2.06,2.06,0,0,1-.84-.57,1.58,1.58,0,0,1-.36-1.09,1.86,1.86,0,0,1,.33-1.08,2.15,2.15,0,0,1,1-.77,4,4,0,0,1,1.61-.28,6,6,0,0,1,1.27.14,3.94,3.94,0,0,1,1.11.41l-.64,1.54a4,4,0,0,0-1.76-.47c-.55,0-.82.14-.82.4s.08.22.24.28a4.14,4.14,0,0,0,.8.21,8,8,0,0,1,1.22.31,2.16,2.16,0,0,1,.86.57,1.57,1.57,0,0,1,.37,1.08,1.8,1.8,0,0,1-.34,1.08,2.24,2.24,0,0,1-1,.77,4.11,4.11,0,0,1-1.61.28A7,7,0,0,1,101.61,229.6Z" fill="#263238" style="transform-origin:103.231px 226.47px 0px"/>
<path class="animable" d="M108,225h-1.85v-1.66H112V225h-1.84v4.66H108Z" fill="#263238" style="transform-origin:109.075px 226.5px 0px"/>
<path class="animable" d="M113.9,229.35a3.29,3.29,0,0,1-1.27-1.18,3.37,3.37,0,0,1,0-3.4,3.29,3.29,0,0,1,1.27-1.18,4.2,4.2,0,0,1,3.66,0,3.23,3.23,0,0,1,0,5.76,4.2,4.2,0,0,1-3.66,0Zm2.55-1.5a1.4,1.4,0,0,0,.51-.54,1.74,1.74,0,0,0,.19-.84,1.67,1.67,0,0,0-.19-.83,1.43,1.43,0,0,0-.51-.55,1.38,1.38,0,0,0-1.43,0,1.29,1.29,0,0,0-.51.55,1.67,1.67,0,0,0-.19.83,1.74,1.74,0,0,0,.19.84,1.27,1.27,0,0,0,.51.54,1.38,1.38,0,0,0,1.43,0Z" fill="#263238" style="transform-origin:115.749px 226.47px 0px"/>
<path class="animable" d="M122.78,228h-.58v1.59h-2.13v-6.32h3a3.75,3.75,0,0,1,1.52.29,2.21,2.21,0,0,1,1.36,2.1,2.12,2.12,0,0,1-1.19,2l1.32,1.95h-2.27Zm.84-2.89A.94.94,0,0,0,123,225h-.77v1.48H123a.94.94,0,0,0,.65-.2.67.67,0,0,0,.22-.54A.68.68,0,0,0,123.62,225.15Z" fill="#263238" style="transform-origin:123.075px 226.44px 0px"/>
<path class="animable" d="M132,228v1.61h-5.25v-6.32h5.13v1.61h-3v.74h2.67v1.53h-2.67V228Z" fill="#263238" style="transform-origin:129.375px 226.45px 0px"/>
<path class="animable" d="m379 230.21a1.08 1.08 0 1 1-1.08-1.08 1.08 1.08 0 0 1 1.08 1.08z" fill="#263238" style="transform-origin:377.92px 230.21px 0px"/>
<path class="animable" d="m385.71 230.21a1.09 1.09 0 1 1-1.08-1.08 1.09 1.09 0 0 1 1.08 1.08z" fill="#263238" style="transform-origin:384.62px 230.22px 0px"/>
<path class="animable" d="M377,222.55l-.73-2.34h-2.74V221h2.19l2.06,6.68h7.19l.64-4.42Zm7.41,4.55-6.13-.07-1.16-3.89,7.79.57Z" fill="#263238" style="transform-origin:379.57px 223.945px 0px"/>
<rect class="animable" x="94.59" y="202.65" width="313.67" height="16.12" fill="#0D6EFD" style="transform-origin:251.425px 210.71px 0px"/>
<g class="animable" opacity=".7" style="transform-origin:251.425px 210.71px 0px">
<rect class="animable" x="94.59" y="202.65" width="313.67" height="16.12" fill="#fff" style="transform-origin:251.425px 210.71px 0px"/>
</g>
<rect class="animable" x="115" y="206.29" width="188.94" height="8.83" rx="3.38" fill="#263238" style="transform-origin:209.47px 210.705px 0px"/>
<rect class="animable" x="115" y="206.29" width="188.94" height="8.83" rx="3.38" fill="#fff" opacity=".7" style="transform-origin:209.47px 210.705px 0px"/>
<polygon class="animable" points="298.12 207.32 299.22 209.55 301.68 209.91 299.9 211.64 300.32 214.09 298.12 212.94 295.92 214.09 296.34 211.64 294.56 209.91 297.02 209.55" fill="#0D6EFD" style="transform-origin:298.12px 210.705px 0px"/>
<polygon class="animable" points="106.09 206.08 101.23 210.94 102.65 210.94 102.65 215.33 109.53 215.33 109.53 210.94 110.95 210.94" fill="#0D6EFD" style="transform-origin:106.09px 210.705px 0px"/>
<path class="animable" d="M283.87,265h2.69a3.78,3.78,0,0,1,1.62.33,2.5,2.5,0,0,1,1.08,1,2.64,2.64,0,0,1,.39,1.45,2.7,2.7,0,0,1-.39,1.46,2.48,2.48,0,0,1-1.08.94,3.64,3.64,0,0,1-1.62.34h-2.69Zm2.62,4a1.34,1.34,0,0,0,.94-2.26,1.31,1.31,0,0,0-.94-.33h-.78V269Z" fill="#0D6EFD" style="transform-origin:286.76px 267.76px 0px"/>
<path class="animable" d="M294.79,268.69h-3a.71.71,0,0,0,.31.37,1,1,0,0,0,.55.13,1.26,1.26,0,0,0,.47-.07,1.85,1.85,0,0,0,.42-.24l.92.93a2.37,2.37,0,0,1-1.86.68,3.06,3.06,0,0,1-1.36-.28,2.2,2.2,0,0,1-.91-.79,2.21,2.21,0,0,1,0-2.29,2.16,2.16,0,0,1,.86-.78,2.67,2.67,0,0,1,1.24-.29,2.76,2.76,0,0,1,1.19.26,2.08,2.08,0,0,1,.85.76,2.19,2.19,0,0,1,.31,1.2S294.81,268.44,294.79,268.69ZM292,267.42a.78.78,0,0,0-.23.42h1.38a.73.73,0,0,0-.24-.42.68.68,0,0,0-.45-.15A.71.71,0,0,0,292,267.42Z" fill="#0D6EFD" style="transform-origin:292.404px 268.279px 0px"/>
<path class="animable" d="m295.37 264.62h1.76v5.8h-1.76z" fill="#0D6EFD" style="transform-origin:296.25px 267.52px 0px"/>
<path class="animable" d="M298,265.55a.81.81,0,0,1-.29-.65.79.79,0,0,1,.29-.64,1.12,1.12,0,0,1,.77-.26,1.16,1.16,0,0,1,.77.24.8.8,0,0,1,.29.63.88.88,0,0,1-.29.67,1.12,1.12,0,0,1-.77.26A1.17,1.17,0,0,1,298,265.55Zm-.11.59h1.76v4.28h-1.76Z" fill="#0D6EFD" style="transform-origin:298.77px 267.209px 0px"/>
<path class="animable" d="M305.22,266.14l-1.72,4.28h-1.83L300,266.14h1.81l.86,2.29.92-2.29Z" fill="#0D6EFD" style="transform-origin:302.61px 268.28px 0px"/>
<path class="animable" d="M309.9,268.69h-3a.71.71,0,0,0,.31.37,1,1,0,0,0,.55.13,1.26,1.26,0,0,0,.47-.07,1.85,1.85,0,0,0,.42-.24l.92.93a2.36,2.36,0,0,1-1.86.68,3.06,3.06,0,0,1-1.36-.28,2.2,2.2,0,0,1-.91-.79,2.21,2.21,0,0,1,0-2.29,2.16,2.16,0,0,1,.86-.78,2.67,2.67,0,0,1,1.24-.29,2.73,2.73,0,0,1,1.19.26,2.08,2.08,0,0,1,.85.76,2.19,2.19,0,0,1,.31,1.2S309.92,268.44,309.9,268.69Zm-2.76-1.27a.73.73,0,0,0-.24.42h1.38a.73.73,0,0,0-.24-.42.75.75,0,0,0-.9,0Z" fill="#0D6EFD" style="transform-origin:307.514px 268.279px 0px"/>
<path class="animable" d="M313.54,266.06v1.57l-.39,0a.81.81,0,0,0-.91.92v1.9h-1.76v-4.28h1.68v.46A1.72,1.72,0,0,1,313.54,266.06Z" fill="#0D6EFD" style="transform-origin:312.01px 268.254px 0px"/>
<path class="animable" d="M318.92,266.14l-1.76,4.36a2.37,2.37,0,0,1-.84,1.17,2.09,2.09,0,0,1-1.22.34,2.35,2.35,0,0,1-.73-.11,1.68,1.68,0,0,1-.57-.27l.59-1.21a1.06,1.06,0,0,0,.3.16,1,1,0,0,0,.32.06.54.54,0,0,0,.44-.17l-1.8-4.33h1.81l.89,2.29.89-2.29Z" fill="#0D6EFD" style="transform-origin:316.285px 269.076px 0px"/>
<path class="animable" d="M325.32,269.46h-2.08l-.37,1H321l2.39-5.47h1.81l2.39,5.47h-1.91Zm-.51-1.32-.53-1.38-.53,1.38Z" fill="#0D6EFD" style="transform-origin:324.295px 267.725px 0px"/>
<path class="animable" d="M332.52,264.62v5.8h-1.68v-.36a1.49,1.49,0,0,1-1.17.43,2.17,2.17,0,0,1-1-.26,2,2,0,0,1-.75-.78,2.47,2.47,0,0,1-.28-1.17,2.41,2.41,0,0,1,.28-1.17,2,2,0,0,1,.75-.78,2.07,2.07,0,0,1,1-.27,1.5,1.5,0,0,1,1.08.37v-1.81Zm-1.93,4.28a.92.92,0,0,0,.2-.62.89.89,0,0,0-.2-.62.68.68,0,0,0-1,0,.89.89,0,0,0-.2.62.92.92,0,0,0,.2.62.68.68,0,0,0,1,0Z" fill="#0D6EFD" style="transform-origin:330.08px 267.557px 0px"/>
<path class="animable" d="M338,264.62v5.8h-1.68v-.36a1.49,1.49,0,0,1-1.17.43,2.17,2.17,0,0,1-1-.26,2,2,0,0,1-.75-.78,2.47,2.47,0,0,1-.28-1.17,2.41,2.41,0,0,1,.28-1.17,2,2,0,0,1,.75-.78,2.07,2.07,0,0,1,1-.27,1.5,1.5,0,0,1,1.08.37v-1.81Zm-1.93,4.28a.92.92,0,0,0,.19-.62.89.89,0,0,0-.19-.62.63.63,0,0,0-.5-.22.62.62,0,0,0-.5.22.89.89,0,0,0-.2.62.92.92,0,0,0,.2.62.62.62,0,0,0,.5.22A.63.63,0,0,0,336.1,268.9Z" fill="#0D6EFD" style="transform-origin:335.56px 267.557px 0px"/>
<path class="animable" d="M341.87,266.06v1.57l-.39,0a.81.81,0,0,0-.91.92v1.9h-1.76v-4.28h1.68v.46A1.72,1.72,0,0,1,341.87,266.06Z" fill="#0D6EFD" style="transform-origin:340.34px 268.254px 0px"/>
<path class="animable" d="M346.86,268.69h-3a.67.67,0,0,0,.31.37,1,1,0,0,0,.55.13,1.33,1.33,0,0,0,.47-.07,1.85,1.85,0,0,0,.42-.24l.92.93a2.4,2.4,0,0,1-1.87.68,3.09,3.09,0,0,1-1.36-.28,2.17,2.17,0,0,1-.9-.79,2,2,0,0,1-.32-1.14,2.07,2.07,0,0,1,1.18-1.93,2.67,2.67,0,0,1,1.24-.29,2.72,2.72,0,0,1,1.18.26,2,2,0,0,1,.85.76,2.19,2.19,0,0,1,.32,1.2S346.87,268.44,346.86,268.69Zm-2.77-1.27a.67.67,0,0,0-.23.42h1.37a.72.72,0,0,0-.23-.42.69.69,0,0,0-.46-.15A.68.68,0,0,0,344.09,267.42Z" fill="#0D6EFD" style="transform-origin:344.471px 268.279px 0px"/>
<path class="animable" d="M348,270.38a2.94,2.94,0,0,1-.86-.31l.48-1.16a2.57,2.57,0,0,0,.71.28,3.09,3.09,0,0,0,.78.1,1.34,1.34,0,0,0,.43-.05.16.16,0,0,0,.12-.15c0-.07-.05-.12-.15-.14a4,4,0,0,0-.5-.08,7.25,7.25,0,0,1-.89-.16,1.4,1.4,0,0,1-.64-.38,1.08,1.08,0,0,1-.28-.8,1.19,1.19,0,0,1,.25-.75,1.71,1.71,0,0,1,.75-.52,3.22,3.22,0,0,1,1.19-.2,5,5,0,0,1,.95.09,2.71,2.71,0,0,1,.79.27l-.48,1.16a2.51,2.51,0,0,0-1.24-.31c-.38,0-.58.07-.58.2s.06.12.16.15l.49.08a5.53,5.53,0,0,1,.89.16,1.56,1.56,0,0,1,.64.38,1.14,1.14,0,0,1,.28.81,1.24,1.24,0,0,1-.25.73,1.79,1.79,0,0,1-.75.52,3.38,3.38,0,0,1-1.21.19A4.83,4.83,0,0,1,348,270.38Z" fill="#0D6EFD" style="transform-origin:349.216px 268.275px 0px"/>
<path class="animable" d="M352.44,270.38a3.05,3.05,0,0,1-.86-.31l.49-1.16a2.62,2.62,0,0,0,.7.28,3.11,3.11,0,0,0,.79.1,1.43,1.43,0,0,0,.43-.05.16.16,0,0,0,.12-.15c0-.07-.05-.12-.16-.14a3.78,3.78,0,0,0-.49-.08,6.92,6.92,0,0,1-.89-.16,1.44,1.44,0,0,1-.65-.38,1.12,1.12,0,0,1-.27-.8,1.19,1.19,0,0,1,.25-.75,1.62,1.62,0,0,1,.74-.52,3.26,3.26,0,0,1,1.19-.2,4.94,4.94,0,0,1,.95.09,2.78,2.78,0,0,1,.8.27l-.49,1.16a2.47,2.47,0,0,0-1.23-.31c-.39,0-.58.07-.58.2s.05.12.15.15l.5.08a5.39,5.39,0,0,1,.88.16,1.44,1.44,0,0,1,.64.38,1.09,1.09,0,0,1,.28.81,1.17,1.17,0,0,1-.25.73,1.73,1.73,0,0,1-.75.52,3.34,3.34,0,0,1-1.21.19A5,5,0,0,1,352.44,270.38Z" fill="#0D6EFD" style="transform-origin:353.656px 268.275px 0px"/>
<rect class="animable" x="283.49" y="284.86" width="57.49" height="3.43" fill="#0D6EFD" style="transform-origin:312.235px 286.575px 0px"/>
<rect class="animable" x="283.49" y="290.37" width="45.72" height="3.43" fill="#0D6EFD" style="transform-origin:306.35px 292.085px 0px"/>
<rect class="animable" x="283.49" y="295.88" width="63.15" height="3.43" fill="#0D6EFD" style="transform-origin:315.065px 297.595px 0px"/>
<rect class="animable" x="283.49" y="301.39" width="53.02" height="3.43" fill="#0D6EFD" style="transform-origin:310px 303.105px 0px"/>
<rect class="animable" x="284.12" y="320.45" width="79.24" height="13.11" rx="5.44" fill="#0D6EFD" style="transform-origin:323.74px 327.005px 0px"/>
<path class="animable" d="M296.2,324.67a1.64,1.64,0,0,1,.7,2.34,1.67,1.67,0,0,1-.7.58,2.67,2.67,0,0,1-1.06.2h-.64v1.08H293v-4.4h2.12A2.67,2.67,0,0,1,296.2,324.67Zm-.7,1.84a.49.49,0,0,0,.15-.38.48.48,0,0,0-.15-.38.68.68,0,0,0-.46-.14h-.54v1H295A.68.68,0,0,0,295.5,326.51Z" fill="#fff" style="transform-origin:295.071px 326.67px 0px"/>
<path class="animable" d="M300.47,325.77A1.55,1.55,0,0,1,301,327v1.85h-1.32v-.45a1,1,0,0,1-1,.51,1.62,1.62,0,0,1-.7-.14,1,1,0,0,1-.58-.93.87.87,0,0,1,.39-.77,2.09,2.09,0,0,1,1.18-.26h.57c0-.27-.26-.41-.64-.41a1.55,1.55,0,0,0-.47.08,1.2,1.2,0,0,0-.41.19l-.46-.93a2.64,2.64,0,0,1,.72-.29,3.37,3.37,0,0,1,.83-.1A2.08,2.08,0,0,1,300.47,325.77ZM299.35,328a.45.45,0,0,0,.18-.24v-.24h-.35c-.29,0-.43.1-.43.29a.25.25,0,0,0,.09.2.36.36,0,0,0,.24.08A.4.4,0,0,0,299.35,328Z" fill="#fff" style="transform-origin:299.2px 327.133px 0px"/>
<path class="animable" d="M305.33,325.43l-1.41,3.51a2,2,0,0,1-.68.94,1.69,1.69,0,0,1-1,.27,2.32,2.32,0,0,1-.58-.08,1.31,1.31,0,0,1-.46-.23l.47-1a.92.92,0,0,0,.24.13.85.85,0,0,0,.26.05.45.45,0,0,0,.35-.14l-1.44-3.48h1.45l.71,1.84.73-1.84Z" fill="#fff" style="transform-origin:303.205px 327.776px 0px"/>
<path class="animable" d="M311.1,325.75a1.6,1.6,0,0,1,.37,1.16v2h-1.42v-1.72c0-.39-.13-.59-.38-.59a.41.41,0,0,0-.33.15.77.77,0,0,0-.12.48v1.68H307.8v-1.72c0-.39-.13-.59-.38-.59a.41.41,0,0,0-.33.15.77.77,0,0,0-.12.48v1.68h-1.42v-3.44h1.35v.32a1.35,1.35,0,0,1,1-.38,1.41,1.41,0,0,1,.62.13,1,1,0,0,1,.45.39,1.45,1.45,0,0,1,.5-.39,1.57,1.57,0,0,1,.65-.13A1.35,1.35,0,0,1,311.1,325.75Z" fill="#fff" style="transform-origin:308.513px 327.159px 0px"/>
<path class="animable" d="M315.79,327.48H313.4a.57.57,0,0,0,.25.3.87.87,0,0,0,.44.1,1,1,0,0,0,.38-.06,1.18,1.18,0,0,0,.34-.19l.74.75a1.93,1.93,0,0,1-1.5.55,2.54,2.54,0,0,1-1.1-.23,1.66,1.66,0,0,1-.72-.64,1.59,1.59,0,0,1-.26-.91,1.71,1.71,0,0,1,.95-1.56,2.16,2.16,0,0,1,1-.22,2.31,2.31,0,0,1,.95.2,1.74,1.74,0,0,1,.68.61,1.78,1.78,0,0,1,.26,1S315.8,327.28,315.79,327.48Zm-2.23-1a.56.56,0,0,0-.18.34h1.1a.55.55,0,0,0-.19-.33.54.54,0,0,0-.36-.12A.62.62,0,0,0,313.56,326.45Z" fill="#fff" style="transform-origin:313.89px 327.152px 0px"/>
<path class="animable" d="M319.66,325.75a1.56,1.56,0,0,1,.39,1.16v2h-1.42v-1.72c0-.39-.14-.59-.42-.59a.51.51,0,0,0-.39.17.75.75,0,0,0-.15.52v1.62h-1.42v-3.44h1.35v.34a1.45,1.45,0,0,1,.47-.3,1.56,1.56,0,0,1,.57-.1A1.41,1.41,0,0,1,319.66,325.75Z" fill="#fff" style="transform-origin:318.152px 327.158px 0px"/>
<path class="animable" d="M323.2,328.75a1.83,1.83,0,0,1-.88.18,1.62,1.62,0,0,1-1.11-.35,1.32,1.32,0,0,1-.39-1v-.88h-.47v-1h.47v-1h1.42v1H323v1h-.71v.86a.37.37,0,0,0,.08.25.29.29,0,0,0,.22.09.58.58,0,0,0,.32-.1Z" fill="#fff" style="transform-origin:321.775px 326.817px 0px"/>
<path class="animable" d="M329.41,328.87v-2l-1,1.61h-.65l-1-1.54v1.94h-1.35v-4.4h1.21l1.44,2.34,1.39-2.34h1.22v4.4Z" fill="#fff" style="transform-origin:328.04px 326.68px 0px"/>
<path class="animable" d="M335.07,327.48h-2.38a.57.57,0,0,0,.25.3.84.84,0,0,0,.44.1,1,1,0,0,0,.38-.06,1.15,1.15,0,0,0,.33-.19l.75.75a1.94,1.94,0,0,1-1.51.55,2.5,2.5,0,0,1-1.09-.23,1.69,1.69,0,0,1-.73-.64,1.74,1.74,0,0,1,.7-2.47,2.12,2.12,0,0,1,1-.22,2.24,2.24,0,0,1,.95.2,1.7,1.7,0,0,1,.69.61,1.77,1.77,0,0,1,.25,1S335.09,327.28,335.07,327.48Zm-2.22-1a.58.58,0,0,0-.19.34h1.11a.55.55,0,0,0-.19-.33.57.57,0,0,0-.37-.12A.61.61,0,0,0,332.85,326.45Z" fill="#fff" style="transform-origin:333.176px 327.153px 0px"/>
<path class="animable" d="M338.07,328.75a1.76,1.76,0,0,1-.87.18,1.62,1.62,0,0,1-1.11-.35,1.32,1.32,0,0,1-.39-1v-.88h-.47v-1h.47v-1h1.42v1h.7v1h-.7v.86a.33.33,0,0,0,.08.25.26.26,0,0,0,.21.09.58.58,0,0,0,.32-.1Z" fill="#fff" style="transform-origin:336.65px 326.817px 0px"/>
<path class="animable" d="M341.84,325.75a1.56,1.56,0,0,1,.39,1.16v2h-1.42v-1.72c0-.39-.14-.59-.42-.59a.51.51,0,0,0-.39.17.75.75,0,0,0-.15.52v1.62h-1.42V324.2h1.42v1.51a1.56,1.56,0,0,1,2,0Z" fill="#fff" style="transform-origin:340.332px 326.555px 0px"/>
<path class="animable" d="M343.69,328.7a1.74,1.74,0,0,1-.71-.63,1.7,1.7,0,0,1-.26-.92,1.72,1.72,0,0,1,1-1.56,2.54,2.54,0,0,1,2.07,0,1.69,1.69,0,0,1,.71.64,1.67,1.67,0,0,1,.25.92,1.69,1.69,0,0,1-.25.92,1.74,1.74,0,0,1-.71.63,2.44,2.44,0,0,1-2.07,0Zm1.43-1.05a.72.72,0,0,0,.16-.5.7.7,0,0,0-.16-.5.53.53,0,0,0-.8,0,.7.7,0,0,0-.16.5.72.72,0,0,0,.16.5.56.56,0,0,0,.8,0Z" fill="#fff" style="transform-origin:344.735px 327.15px 0px"/>
<path class="animable" d="M351,324.2v4.67h-1.35v-.29a1.18,1.18,0,0,1-.95.35,1.59,1.59,0,0,1-.83-.22,1.56,1.56,0,0,1-.6-.62,1.92,1.92,0,0,1-.23-.94,1.9,1.9,0,0,1,.23-.94,1.65,1.65,0,0,1,.6-.63,1.68,1.68,0,0,1,.83-.21,1.23,1.23,0,0,1,.88.29V324.2Zm-1.55,3.45a.76.76,0,0,0,.15-.5.75.75,0,0,0-.15-.5.52.52,0,0,0-.41-.18.52.52,0,0,0-.4.18.75.75,0,0,0-.16.5.77.77,0,0,0,.16.5.54.54,0,0,0,.4.17A.55.55,0,0,0,349.42,327.65Z" fill="#fff" style="transform-origin:349.02px 326.567px 0px"/>
<rect class="animable" x="178.66" y="245.04" width="98.47" height="5.02" fill="#0D6EFD" style="transform-origin:227.895px 247.55px 0px"/>
<rect class="animable" x="178.66" y="252.02" width="21.61" height="5.02" fill="#0D6EFD" style="transform-origin:189.465px 254.53px 0px"/>
<rect class="animable" x="178.66" y="259.01" width="29.69" height="5.02" fill="#0D6EFD" style="transform-origin:193.505px 261.52px 0px"/>
<rect class="animable" x="178.97" y="266" width="24.21" height="5.02" fill="#0D6EFD" style="transform-origin:191.075px 268.51px 0px"/>
<rect class="animable" x="147.46" y="245.04" width="25.99" height="25.99" rx="3.89" fill="#0D6EFD" style="transform-origin:160.455px 258.035px 0px"/>
<rect class="animable" x="154.83" y="252.41" width="11.24" height="11.24" rx="1.01" fill="#fff" opacity=".2" style="transform-origin:160.45px 258.03px 0px"/>
<rect class="animable" x="159.16" y="253.48" width="5.53" height="5.53" rx=".87" fill="#fff" opacity=".2" style="transform-origin:161.925px 256.245px 0px"/>
<rect class="animable" x="124.59" y="252.02" width="9.5" height="9.5" fill="#0D6EFD" style="transform-origin:129.34px 256.77px 0px"/>
<polygon class="animable" points="125.58 257.47 128.26 260.5 133.62 253.03 127.89 258.59" fill="#fff" style="transform-origin:129.6px 256.765px 0px"/>
<rect class="animable" x="178.66" y="284.37" width="98.47" height="5.02" fill="#0D6EFD" style="transform-origin:227.895px 286.88px 0px"/>
<rect class="animable" x="178.66" y="291.36" width="21.61" height="5.02" fill="#0D6EFD" style="transform-origin:189.465px 293.87px 0px"/>
<rect class="animable" x="178.66" y="298.35" width="29.69" height="5.02" fill="#0D6EFD" style="transform-origin:193.505px 300.86px 0px"/>
<rect class="animable" x="178.97" y="305.33" width="24.21" height="5.02" fill="#0D6EFD" style="transform-origin:191.075px 307.84px 0px"/>
<rect class="animable" x="147.46" y="284.37" width="25.99" height="25.99" rx="3.89" fill="#0D6EFD" style="transform-origin:160.455px 297.365px 0px"/>
<rect class="animable" x="154.83" y="291.74" width="11.24" height="11.24" rx="1.01" fill="#fff" opacity=".2" style="transform-origin:160.45px 297.36px 0px"/>
<rect class="animable" x="159.16" y="292.82" width="5.53" height="5.53" rx=".87" fill="#fff" opacity=".2" style="transform-origin:161.925px 295.585px 0px"/>
<rect class="animable" x="124.59" y="291.36" width="9.5" height="9.5" fill="#0D6EFD" style="transform-origin:129.34px 296.11px 0px"/>
<polygon class="animable" points="125.58 296.81 128.26 299.84 133.62 292.37 127.89 297.92" fill="#fff" style="transform-origin:129.6px 296.105px 0px"/>
<rect class="animable" x="178.66" y="323.71" width="98.47" height="5.02" fill="#0D6EFD" style="transform-origin:227.895px 326.22px 0px"/>
<rect class="animable" x="178.66" y="330.69" width="21.61" height="5.02" fill="#0D6EFD" style="transform-origin:189.465px 333.2px 0px"/>
<rect class="animable" x="178.66" y="337.68" width="29.69" height="5.02" fill="#0D6EFD" style="transform-origin:193.505px 340.19px 0px"/>
<rect class="animable" x="178.97" y="344.67" width="24.21" height="5.02" fill="#0D6EFD" style="transform-origin:191.075px 347.18px 0px"/>
<rect class="animable" x="147.46" y="323.71" width="25.99" height="25.99" rx="3.89" fill="#0D6EFD" style="transform-origin:160.455px 336.705px 0px"/>
<rect class="animable" x="154.83" y="331.08" width="11.24" height="11.24" rx="1.01" fill="#fff" opacity=".2" style="transform-origin:160.45px 336.7px 0px"/>
<rect class="animable" x="159.16" y="332.15" width="5.53" height="5.53" rx=".87" fill="#fff" opacity=".2" style="transform-origin:161.925px 334.915px 0px"/>
<rect class="animable" x="124.59" y="330.69" width="9.5" height="9.5" fill="#0D6EFD" style="transform-origin:129.34px 335.44px 0px"/>
<polygon class="animable" points="125.58 336.14 128.26 339.17 133.62 331.7 127.89 337.26" fill="#fff" style="transform-origin:129.6px 335.435px 0px"/>
</g>
<g class="animable" style="transform-origin:209.44px 163.7px 0px">
<g class="animable" opacity=".2" style="transform-origin:213.19px 167.925px 0px">
<rect class="animable" x="159.77" y="88.3" width="106.84" height="159.25" style="transform-origin:213.19px 167.925px 0px"/>
</g>
<rect class="animable" x="152.28" y="79.85" width="106.84" height="159.25" fill="#0D6EFD" style="transform-origin:205.7px 159.475px 0px"/>
<g class="animable" opacity=".5" style="transform-origin:205.7px 159.475px 0px">
<rect class="animable" x="152.28" y="79.85" width="106.84" height="159.25" fill="#fff" style="transform-origin:205.7px 159.475px 0px"/>
</g>
<rect class="animable" x="152.27" y="79.85" width="106.86" height="10.66" fill="#0D6EFD" style="transform-origin:205.7px 85.18px 0px"/>
<path class="animable" d="m255.68 85.13a3.17 3.17 0 1 1-3.17-3.13 3.17 3.17 0 0 1 3.17 3.13z" fill="#fff" style="transform-origin:252.51px 85.1701px 0px"/>
<path class="animable" d="m240.26 227.69h-67.94a11.49 11.49 0 0 1-11.5-11.49 11.49 11.49 0 0 1 11.5-11.49h67.94a11.49 11.49 0 0 1 11.5 11.49 11.49 11.49 0 0 1-11.5 11.49z" fill="#0D6EFD" style="transform-origin:206.29px 216.2px 0px"/>
<path class="animable" d="M170.08,220.21a4.52,4.52,0,0,1-1.82-1.7,4.93,4.93,0,0,1,0-4.93,4.43,4.43,0,0,1,1.82-1.69,5.45,5.45,0,0,1,2.6-.61,5.73,5.73,0,0,1,2.37.47,4.32,4.32,0,0,1,1.72,1.35l-1.94,1.74a2.48,2.48,0,0,0-2-1.07,2,2,0,0,0-1.55.62,2.31,2.31,0,0,0-.59,1.66,2.34,2.34,0,0,0,.59,1.66,2,2,0,0,0,1.55.61,2.49,2.49,0,0,0,2-1.06l1.94,1.73a4.32,4.32,0,0,1-1.72,1.35,6.06,6.06,0,0,1-5-.13Z" fill="#fff" style="transform-origin:172.185px 216.048px 0px"/>
<path class="animable" d="m186.64 211.49v9.11h-3.07v-3.36h-2.84v3.36h-3.08v-9.11h3.08v3.23h2.84v-3.23z" fill="#fff" style="transform-origin:182.145px 216.045px 0px"/>
<path class="animable" d="M195.7,218.29v2.31h-7.58v-9.11h7.41v2.32h-4.39v1.06H195v2.22h-3.86v1.2Z" fill="#fff" style="transform-origin:191.91px 216.045px 0px"/>
<path class="animable" d="M199,220.21a4.56,4.56,0,0,1-1.81-1.7,4.93,4.93,0,0,1,0-4.93,4.47,4.47,0,0,1,1.81-1.69,5.52,5.52,0,0,1,2.61-.61,5.79,5.79,0,0,1,2.37.47,4.39,4.39,0,0,1,1.72,1.35l-1.94,1.74a2.48,2.48,0,0,0-2-1.07,2,2,0,0,0-1.54.62,2.26,2.26,0,0,0-.59,1.66,2.3,2.3,0,0,0,.59,1.66,2,2,0,0,0,1.54.61,2.5,2.5,0,0,0,2-1.06l1.94,1.73a4.39,4.39,0,0,1-1.72,1.35,6.09,6.09,0,0,1-5-.13Z" fill="#fff" style="transform-origin:201.115px 216.047px 0px"/>
<path class="animable" d="M210.28,217.58l-.69.77v2.25h-3v-9.11h3v3.31l3-3.31h3.34l-3.64,4,3.83,5.1h-3.56Z" fill="#fff" style="transform-origin:211.355px 216.045px 0px"/>
<path class="animable" d="M218.34,220.2a4.74,4.74,0,0,1-1.83-6.61,4.62,4.62,0,0,1,1.83-1.7,6,6,0,0,1,5.29,0,4.72,4.72,0,0,1,1.84,1.7,4.67,4.67,0,0,1-1.84,6.61,6,6,0,0,1-5.29,0ZM222,218a2,2,0,0,0,.74-.79,2.53,2.53,0,0,0,.27-1.2,2.57,2.57,0,0,0-.27-1.21,2,2,0,0,0-.74-.79,2,2,0,0,0-2.8.79,2.46,2.46,0,0,0-.28,1.21,2.42,2.42,0,0,0,.28,1.2,2,2,0,0,0,2.8.79Z" fill="#fff" style="transform-origin:221.003px 216.045px 0px"/>
<path class="animable" d="M228.34,219.68a4.24,4.24,0,0,1-1.17-3.18v-5h3.07v4.92a2.35,2.35,0,0,0,.36,1.46,1.26,1.26,0,0,0,1,.45,1.24,1.24,0,0,0,1-.45,2.35,2.35,0,0,0,.36-1.46v-4.92h3v5a4.24,4.24,0,0,1-1.17,3.18,5.3,5.3,0,0,1-6.54,0Z" fill="#fff" style="transform-origin:231.565px 216.154px 0px"/>
<path class="animable" d="m239.31 213.87h-2.67v-2.38h8.41v2.38h-2.67v6.73h-3.07z" fill="#fff" style="transform-origin:240.845px 216.045px 0px"/>
<path class="animable" d="M174.29,122h-4V118.4H183V122h-4v10.18h-4.65Z" fill="#0D6EFD" style="transform-origin:176.645px 125.29px 0px"/>
<path class="animable" d="M185.43,131.66a5.47,5.47,0,0,1-2.24-2,5.54,5.54,0,0,1,0-5.77,5.4,5.4,0,0,1,2.24-2,7.68,7.68,0,0,1,6.45,0,5.48,5.48,0,0,1,2.23,7.75,5.38,5.38,0,0,1-2.23,2,7.58,7.58,0,0,1-6.45,0Zm4.48-3.3a2.36,2.36,0,0,0,.49-1.57,2.27,2.27,0,0,0-.49-1.55,1.73,1.73,0,0,0-2.53,0,2.27,2.27,0,0,0-.49,1.55,2.36,2.36,0,0,0,.49,1.57,1.71,1.71,0,0,0,2.53,0Z" fill="#0D6EFD" style="transform-origin:188.644px 126.77px 0px"/>
<path class="animable" d="M204.24,131.81a5.56,5.56,0,0,1-2.74.57,5,5,0,0,1-3.48-1.09A4.16,4.16,0,0,1,196.8,128v-2.75h-1.48V122h1.48v-3h4.45v3h2.2v3.25h-2.2V128a1.08,1.08,0,0,0,.25.77.9.9,0,0,0,.67.28,1.74,1.74,0,0,0,1-.3Z" fill="#0D6EFD" style="transform-origin:199.78px 125.696px 0px"/>
<path class="animable" d="M214.52,122.49A4.84,4.84,0,0,1,216,126.4v5.79h-4.13v-1.42a3,3,0,0,1-3,1.61,4.82,4.82,0,0,1-2.18-.44,3.27,3.27,0,0,1-1.36-1.2,3.19,3.19,0,0,1-.46-1.7,2.76,2.76,0,0,1,1.22-2.43,6.67,6.67,0,0,1,3.7-.82h1.79c-.14-.84-.82-1.26-2-1.26a5.11,5.11,0,0,0-1.48.22,4.12,4.12,0,0,0-1.28.62l-1.42-2.93a7.94,7.94,0,0,1,2.24-.9,11.1,11.1,0,0,1,2.61-.32A6.5,6.5,0,0,1,214.52,122.49Zm-3.51,7a1.44,1.44,0,0,0,.55-.77v-.75h-1.1c-.9,0-1.36.31-1.36.91a.78.78,0,0,0,.29.62,1.18,1.18,0,0,0,.78.25A1.46,1.46,0,0,0,211,129.45Z" fill="#0D6EFD" style="transform-origin:210.442px 126.803px 0px"/>
<path class="animable" d="m217.94 117.58h4.45v14.61h-4.45z" fill="#0D6EFD" style="transform-origin:220.165px 124.885px 0px"/>
<rect class="animable" x="165.27" y="152.64" width="31.3" height="3.44" fill="#0D6EFD" style="transform-origin:180.92px 154.36px 0px"/>
<rect class="animable" x="165.27" y="144.18" width="22.73" height="3.44" fill="#263238" style="transform-origin:176.635px 145.9px 0px"/>
<rect class="animable" x="165.27" y="161.82" width="37.19" height="3.44" fill="#0D6EFD" style="transform-origin:183.865px 163.54px 0px"/>
<rect class="animable" x="227.17" y="161.82" width="17.22" height="3.44" fill="#0D6EFD" style="transform-origin:235.78px 163.54px 0px"/>
<rect class="animable" x="165.27" y="175.7" width="26.4" height="3.44" fill="#0D6EFD" style="transform-origin:178.47px 177.42px 0px"/>
</g>
<g class="animable" style="transform-origin:178.307px 303.228px 0px">
<path class="animable" d="m97.91 193.08c-3.2 0-6.27 2.89-8.15 8.26s-0.53 13.17-0.27 16.85-1.62 9-1.62 9c4.35-3.55 7.31-8 7.81-14.13a15.4 15.4 0 0 1-0.44 7.37 22.51 22.51 0 0 0 5.93-8.25c2.4-5.5 2.13-13.31 2.13-13.31s-2.18-5.79-5.39-5.79z" fill="#263238" style="transform-origin:95.5896px 210.135px 0px"/>
<path class="animable" d="m95.6 199.62c-0.13 2.81 1 8 7.9 3.35s-1.2-7.45-4.51-6.79a3.83 3.83 0 0 0-3.39 3.44z" fill="#0D6EFD" style="transform-origin:100.897px 200.458px 0px"/>
<path class="animable" d="m98.92 199.91c-0.88 5.75 1.87 11 3.54 17.88s0.26 8.4 0.26 8.4 14.64-2.3 22.26-15.82-6.13-22.42-14.6-19.78c-4.17-2.09-10.59 3.72-11.46 9.32z" fill="#263238" style="transform-origin:112.976px 208.158px 0px"/>
<path class="animable" d="M134.49,232.9c.08.77.2,1.71.31,2.58s.26,1.78.4,2.66c.3,1.78.63,3.55,1,5.31s.82,3.49,1.29,5.21,1,3.41,1.66,5.05l.23.61.12.31.09.22a3.26,3.26,0,0,0,.2.43,3.38,3.38,0,0,0,.24.46,18.58,18.58,0,0,0,1.31,2,46.19,46.19,0,0,0,3.47,3.94c2.51,2.58,5.27,5.11,8,7.54l-2.17,3.25a65.6,65.6,0,0,1-9.86-6.3,41.6,41.6,0,0,1-4.53-4.06,21.84,21.84,0,0,1-2.11-2.55,8.85,8.85,0,0,1-.49-.75,7.79,7.79,0,0,1-.46-.81l-.22-.42-.16-.34-.32-.69a63.62,63.62,0,0,1-3.94-11.27c-.48-1.92-.9-3.85-1.22-5.79-.16-1-.31-1.95-.44-2.94s-.22-1.93-.3-3Z" fill="#ffb573" style="transform-origin:139.7px 252.685px 0px"/>
<path class="animable" d="m131.76 225.53c2.66 0.67 4.52 11.62 4.52 11.62l-7.33 5s-7-11-5-14 3.93-3.61 7.81-2.62z" fill="#0D6EFD" style="transform-origin:129.935px 233.621px 0px"/>
<g class="animable" opacity=".5" style="transform-origin:129.935px 233.621px 0px">
<path class="animable" d="m131.76 225.53c2.66 0.67 4.52 11.62 4.52 11.62l-7.33 5s-7-11-5-14 3.93-3.61 7.81-2.62z" fill="#fff" style="transform-origin:129.935px 233.621px 0px"/>
</g>
<path class="animable" d="M131.52,228l2,11-1,.71v.69A70.89,70.89,0,0,1,131,252.77l-1.67-4.45-1.48-5.79,1.64-.74Z" opacity=".2" style="transform-origin:130.685px 240.385px 0px"/>
<path class="animable" d="m154.07 269.34 5 1.94-5.62 3.39s-3.59-2.08-3.5-4.76l0.55-0.31a4.19 4.19 0 0 1 3.57-0.26z" fill="#ffb573" style="transform-origin:154.509px 271.864px 0px"/>
<polygon class="animable" points="162.14 274.95 157.91 278.47 153.43 274.67 159.05 271.28" fill="#ffb573" style="transform-origin:157.785px 274.875px 0px"/>
<path class="animable" d="m131.76 225.53s3.07 1.08-3.09 38.94h-26.2c0.44-10.67 0.53-17.25-4.56-39.14a77 77 0 0 1 11-1.46 84.3 84.3 0 0 1 11.9 0c5.19 0.47 10.95 1.66 10.95 1.66z" fill="#0D6EFD" style="transform-origin:115.218px 244.065px 0px"/>
<g class="animable" opacity=".4" style="transform-origin:115.218px 244.065px 0px">
<path class="animable" d="m131.76 225.53s3.07 1.08-3.09 38.94h-26.2c0.44-10.67 0.53-17.25-4.56-39.14a77 77 0 0 1 11-1.46 84.3 84.3 0 0 1 11.9 0c5.19 0.47 10.95 1.66 10.95 1.66z" fill="#fff" style="transform-origin:115.218px 244.065px 0px"/>
</g>
<path class="animable" d="M100.8,238.78l2.44.71.84-1.78s13.6,4.7,19.52,2.44c3.82-1.46,5.17-2.93,5.17-2.93l-28.72-2.11Z" opacity=".2" style="transform-origin:114.41px 237.937px 0px"/>
<polygon class="animable" points="111.03 409.71 117.49 409.71 120.13 394.77 113.68 394.77" fill="#ffb573" style="transform-origin:115.58px 402.24px 0px"/>
<path class="animable" d="M118,409h-7.25a.51.51,0,0,0-.52.44l-.82,5.73a1,1,0,0,0,1,1.15c2.53,0,3.75-.19,6.93-.19,2,0,7.6.2,10.31.2s2.85-2.67,1.72-2.92c-5.06-1.08-8.62-2.58-10.33-4A1.7,1.7,0,0,0,118,409Z" fill="#263238" style="transform-origin:119.718px 412.665px 0px"/>
<g class="animable" opacity=".2" style="transform-origin:116.22px 398.63px 0px">
<polygon class="animable" points="120.13 394.78 118.77 402.48 112.31 402.48 113.67 394.78" style="transform-origin:116.22px 398.63px 0px"/>
</g>
<path class="animable" d="m109 223.88a81.26 81.26 0 0 1 11.89 0l0.78 0.07c1 1.8 1.19 4.57-1.09 8.63 0 0-10.43-4.2-13.15-8.6 0.48-0.04 1-0.08 1.57-0.1z" fill="#ffb573" style="transform-origin:114.904px 228.121px 0px"/>
<path class="animable" d="M128.67,264.47s5.09,49.7,4.67,69.38C132.9,354.31,120.17,401,120.17,401h-8.72s6.61-45.48,5.84-65.58c-.84-21.91-7.8-70.94-7.8-70.94Z" fill="#263238" style="transform-origin:121.427px 332.735px 0px"/>
<path class="animable" d="M128.67,264.47s5.09,49.7,4.67,69.38C132.9,354.31,120.17,401,120.17,401h-8.72s6.61-45.48,5.84-65.58c-.84-21.91-7.8-70.94-7.8-70.94Z" fill="#263238" opacity=".3" style="transform-origin:121.427px 332.735px 0px"/>
<polygon class="animable" points="110.69 401.3 120.93 401.3 121.68 398.04 110.22 397.64" fill="#263238" style="transform-origin:115.95px 399.47px 0px"/>
<path class="animable" d="m117.37 276.83c6.44 12.95 1.29 36.57-1 45.36-1.17-13.2-3.14-29.33-4.67-41.18 0.99-6.7 2.7-10.14 5.67-4.18z" opacity=".2" style="transform-origin:116.097px 297.976px 0px"/>
<polygon class="animable" points="54.81 352.01 56.99 358.08 71.85 355.28 69.68 349.2" fill="#ffb573" style="transform-origin:63.33px 353.64px 0px"/>
<path class="animable" d="M58.74,358.28l-.51-7.23a.57.57,0,0,0-.48-.54l-5.83-1.17a.9.9,0,0,0-1.08,1c.22,2.53.46,3.75.68,6.93.14,2,.32,7.56.51,10.27s2.9,3,3.06,1.89c.75-5,2-8.45,3.33-10.06A1.51,1.51,0,0,0,58.74,358.28Z" fill="#263238" style="transform-origin:54.7898px 359.679px 0px"/>
<g class="animable" opacity=".2" style="transform-origin:66.93px 352.96px 0px">
<polygon class="animable" points="71.85 355.27 64.19 356.72 62.01 350.65 69.67 349.2" style="transform-origin:66.93px 352.96px 0px"/>
</g>
<path class="animable" d="M121.43,264.47s-7.16,51.29-12,70.59c-5,20.07-42.68,21.78-42.68,21.78L62.91,349s22-5.84,31.45-19.05c4.11-21.62,7.88-65.48,7.88-65.48Z" fill="#263238" style="transform-origin:92.17px 310.655px 0px"/>
<path class="animable" d="M121.43,264.47s-7.16,51.29-12,70.59c-5,20.07-42.68,21.78-42.68,21.78L62.91,349s22-5.84,31.45-19.05c4.11-21.62,7.88-65.48,7.88-65.48Z" fill="#263238" opacity=".3" style="transform-origin:92.17px 310.655px 0px"/>
<polygon class="animable" points="62.47 348.27 65.83 357.94 69.3 357.98 65.93 347.07" fill="#263238" style="transform-origin:65.885px 352.525px 0px"/>
<path class="animable" d="M57.77,360.63a2.7,2.7,0,0,0,.51,1.58,1,1,0,0,0,.77.32.44.44,0,0,0,.39-.23c.38-.77-1.12-3.41-1.29-3.71a.18.18,0,0,0-.16-.09.14.14,0,0,0-.13.11A11.58,11.58,0,0,0,57.77,360.63Zm1.43,1.22a.46.46,0,0,1,0,.28.16.16,0,0,1-.16.09.62.62,0,0,1-.5-.2,4.26,4.26,0,0,1-.38-2.89A9.22,9.22,0,0,1,59.2,361.85Z" fill="#0D6EFD" style="transform-origin:58.6304px 360.515px 0px"/>
<path class="animable" d="M57.86,358.64a.64.64,0,0,0,0,.07c.41.78,1.91,2.39,2.64,2.31.17,0,.38-.13.39-.55a1.2,1.2,0,0,0-.32-.86A4.94,4.94,0,0,0,58,358.5a.15.15,0,0,0-.16.14Zm2.74,1.69a.28.28,0,0,1,0,.09c0,.28-.12.29-.16.3-.44,0-1.61-1.05-2.14-1.86a4.14,4.14,0,0,1,2.06.93A.92.92,0,0,1,60.6,360.33Z" fill="#0D6EFD" style="transform-origin:59.3654px 359.761px 0px"/>
<path class="animable" d="M120.41,410.1a2.4,2.4,0,0,0,1.56-.4.85.85,0,0,0,.28-.75.49.49,0,0,0-.26-.4c-.79-.44-3.36.88-3.65,1a.15.15,0,0,0-.08.16.14.14,0,0,0,.12.12A10.87,10.87,0,0,0,120.41,410.1Zm1.15-1.34a.55.55,0,0,1,.28.06.15.15,0,0,1,.1.16.53.53,0,0,1-.17.49c-.39.35-1.45.41-2.88.18A8.16,8.16,0,0,1,121.56,408.76Z" fill="#0D6EFD" style="transform-origin:120.258px 409.285px 0px"/>
<path class="animable" d="M118.41,409.87l.06,0c.77-.34,2.29-1.73,2.17-2.47,0-.17-.15-.38-.57-.43a1.11,1.11,0,0,0-.85.27,4.24,4.24,0,0,0-1,2.48.13.13,0,0,0,.06.14A.16.16,0,0,0,118.41,409.87Zm1.53-2.62h.1c.28,0,.29.14.3.17.07.44-1,1.54-1.75,2a3.54,3.54,0,0,1,.83-2A.81.81,0,0,1,119.94,407.25Z" fill="#0D6EFD" style="transform-origin:119.432px 408.422px 0px"/>
<path class="animable" d="M110.13,210.48c.75,3.82,1.5,10.84-1.18,13.39,0,0,1,3.89,8.16,3.89,7.83,0,3.74-3.89,3.74-3.89-4.27-1-4.16-4.18-3.41-7.16Z" fill="#ffb573" style="transform-origin:115.434px 219.12px 0px"/>
<path class="animable" d="M113.11,213l4.32,3.69a12.1,12.1,0,0,0-.36,2.11c-1.63-.23-3.88-2-4-3.73A5.87,5.87,0,0,1,113.11,213Z" opacity=".2" style="transform-origin:115.213px 215.9px 0px"/>
<path class="animable" d="M106,203.84c1.46,6.24,2,8.91,5.68,11.6,5.61,4.05,12.95.89,13.39-5.65.39-5.89-2.07-15.1-8.66-16.56A8.74,8.74,0,0,0,106,203.84Z" fill="#ffb573" style="transform-origin:115.429px 205.129px 0px"/>
<path class="animable" d="m108.58 198.22c2.26 1.73 1.27 8-1.53 9.93-4.38-1.05-5.21-15.1 1.53-9.93z" fill="#263238" style="transform-origin:106.734px 202.616px 0px"/>
<path class="animable" d="m116.47 192c2.53 0.44 5.74 4.2 6.42 5.73-3.8-0.7-14.27 2.54-14.27 2.54s-4.68-0.52-2.05-4.13 9.9-4.14 9.9-4.14z" fill="#263238" style="transform-origin:114.329px 196.135px 0px"/>
<path class="animable" d="M117,203.8c.09.52.43.89.77.83s.54-.52.45-1-.43-.89-.77-.83S116.88,203.29,117,203.8Z" fill="#263238" style="transform-origin:117.605px 203.715px 0px"/>
<path class="animable" d="M122.76,202.82c.09.51.43.88.77.82s.53-.52.45-1-.43-.88-.77-.83S122.67,202.3,122.76,202.82Z" fill="#263238" style="transform-origin:123.368px 202.726px 0px"/>
<path class="animable" d="m123.07 201.84 1.17-0.57s-0.47 1.07-1.17 0.57z" fill="#263238" style="transform-origin:123.655px 201.622px 0px"/>
<path class="animable" d="M120.5,204.05a13.9,13.9,0,0,0,2.39,3,2.22,2.22,0,0,1-1.77.65Z" fill="#ed893e" style="transform-origin:121.695px 205.879px 0px"/>
<path class="animable" d="M118.66,210.15a7.1,7.1,0,0,0,.77-.07.16.16,0,0,0,.12-.18.16.16,0,0,0-.17-.13,4.13,4.13,0,0,1-3.59-1,.14.14,0,0,0-.21,0,.16.16,0,0,0,0,.22A4.29,4.29,0,0,0,118.66,210.15Z" fill="#263238" style="transform-origin:117.544px 209.438px 0px"/>
<path class="animable" d="m105.28 209.91a4.69 4.69 0 0 0 2.84 2.17c1.59 0.4 2.35-1 1.88-2.51-0.42-1.33-1.76-3.15-3.34-2.9a2.1 2.1 0 0 0-1.38 3.24z" fill="#ffb573" style="transform-origin:107.53px 209.398px 0px"/>
<path class="animable" d="M113.81,203a.3.3,0,0,0,.28-.22,3.63,3.63,0,0,1,2.17-1.93.31.31,0,0,0,.19-.39.3.3,0,0,0-.38-.19,4.17,4.17,0,0,0-2.56,2.33.31.31,0,0,0,.2.39Z" fill="#263238" style="transform-origin:114.98px 201.627px 0px"/>
<path class="animable" d="M123.42,199.84a.31.31,0,0,0,.15-.57,3.06,3.06,0,0,0-2.78-.19.31.31,0,0,0-.14.42.32.32,0,0,0,.41.13h0a2.42,2.42,0,0,1,2.2.17A.32.32,0,0,0,123.42,199.84Z" fill="#263238" style="transform-origin:122.164px 199.337px 0px"/>
<path class="animable" d="m117.27 202.83 1.17-0.57s-0.44 1.07-1.17 0.57z" fill="#263238" style="transform-origin:117.855px 202.612px 0px"/>
<path class="animable" d="M102.08,262.93l-.67,2.35c-.09.18.12.36.42.36h27c.24,0,.44-.11.45-.26l.24-2.35c0-.16-.19-.3-.45-.3H102.5A.47.47,0,0,0,102.08,262.93Z" fill="#fafafa" style="transform-origin:115.455px 264.184px 0px"/>
<path class="animable" d="M105.64,265.9h-.71c-.14,0-.25-.08-.24-.16l.33-3.05c0-.09.14-.16.28-.16H106c.14,0,.25.07.24.16l-.33,3.05C105.91,265.82,105.78,265.9,105.64,265.9Z" fill="#0D6EFD" style="transform-origin:105.465px 264.215px 0px"/>
<g class="animable" opacity=".3" style="transform-origin:105.465px 264.215px 0px">
<path class="animable" d="M105.64,265.9h-.71c-.14,0-.25-.08-.24-.16l.33-3.05c0-.09.14-.16.28-.16H106c.14,0,.25.07.24.16l-.33,3.05C105.91,265.82,105.78,265.9,105.64,265.9Z" style="transform-origin:105.465px 264.215px 0px"/>
</g>
<path class="animable" d="M126.81,265.9h-.71c-.15,0-.25-.08-.24-.16l.33-3.05c0-.09.13-.16.28-.16h.71c.14,0,.24.07.24.16l-.34,3.05C127.07,265.82,127,265.9,126.81,265.9Z" fill="#0D6EFD" style="transform-origin:126.64px 264.215px 0px"/>
<path class="animable" d="M126.81,265.9h-.71c-.15,0-.25-.08-.24-.16l.33-3.05c0-.09.13-.16.28-.16h.71c.14,0,.24.07.24.16l-.34,3.05C127.07,265.82,127,265.9,126.81,265.9Z" opacity=".3" style="transform-origin:126.64px 264.215px 0px"/>
<path class="animable" d="M116.22,265.9h-.71c-.14,0-.25-.08-.24-.16l.34-3.05c0-.09.13-.16.27-.16h.71c.14,0,.25.07.24.16l-.33,3.05C116.49,265.82,116.37,265.9,116.22,265.9Z" fill="#0D6EFD" style="transform-origin:116.05px 264.215px 0px"/>
<path class="animable" d="M116.22,265.9h-.71c-.14,0-.25-.08-.24-.16l.34-3.05c0-.09.13-.16.27-.16h.71c.14,0,.25.07.24.16l-.33,3.05C116.49,265.82,116.37,265.9,116.22,265.9Z" opacity=".3" style="transform-origin:116.05px 264.215px 0px"/>
<rect class="animable" x="144.21" y="212.22" width="10.64" height="6.52" rx="1.82" fill="#0D6EFD" style="transform-origin:149.53px 215.48px 0px;transform:rotate(-44.61deg)"/>
<path class="animable" d="M147.61,216.43l-1.67,1.65a.14.14,0,0,1-.21,0h0a.16.16,0,0,1,0-.22l1.67-1.64a.14.14,0,0,1,.21,0h0A.14.14,0,0,1,147.61,216.43Z" fill="#fff" opacity=".4" style="isolation:isolate;transform-origin:146.672px 217.15px 0px"/>
<path class="animable" d="M151.21,210.64l-1.67,1.64a.15.15,0,0,1-.21,0h0a.14.14,0,0,1,0-.21l1.67-1.65a.14.14,0,0,1,.21,0h0A.16.16,0,0,1,151.21,210.64Z" fill="#fff" opacity=".4" style="isolation:isolate;transform-origin:150.268px 211.348px 0px"/>
<path class="animable" d="M149.85,218.71l-1.67,1.64a.15.15,0,0,1-.21,0h0a.16.16,0,0,1,0-.22l1.67-1.64a.15.15,0,0,1,.21,0h0A.16.16,0,0,1,149.85,218.71Z" fill="#fff" opacity=".4" style="isolation:isolate;transform-origin:148.91px 219.42px 0px"/>
<path class="animable" d="M146.91,218.18l-.44.43a.16.16,0,0,1-.22,0h0a.15.15,0,0,1,0-.21l.43-.44a.17.17,0,0,1,.22,0h0A.16.16,0,0,1,146.91,218.18Z" fill="#fff" opacity=".4" style="isolation:isolate;transform-origin:146.578px 218.287px 0px"/>
<path class="animable" d="M154.2,214.81l-.52.52a.93.93,0,0,1-1.3,0h0a.92.92,0,0,1,0-1.3l.52-.52a.93.93,0,0,1,1.3,0h0A.92.92,0,0,1,154.2,214.81Z" opacity=".2" style="isolation:isolate;transform-origin:153.29px 214.42px 0px"/>
<path class="animable" d="M100.75,227c1.55.61,3.26,1.27,4.92,1.84s3.35,1.17,5,1.69a67.41,67.41,0,0,0,10,2.44l.62.09.16,0c.07,0,0,0,0,0s0,0,0,0a2.27,2.27,0,0,0,.57-.07,11.16,11.16,0,0,0,2-.71,43.89,43.89,0,0,0,4.49-2.4c3-1.81,6.08-3.84,9.06-5.85l2.6,2.9A71,71,0,0,1,132,234.8a39.66,39.66,0,0,1-4.87,3.41,17.1,17.1,0,0,1-3.06,1.45,9.37,9.37,0,0,1-2.13.47c-.23,0-.44,0-.69,0h-.52l-.75,0c-1-.05-2-.18-3-.29s-2-.28-2.9-.48c-1.92-.34-3.79-.81-5.64-1.31s-3.67-1.08-5.47-1.7-3.54-1.28-5.38-2.09Z" fill="#ffb573" style="transform-origin:118.88px 232.08px 0px"/>
<path class="animable" d="m137.42 224.36 3.94-5.76 1.75 6.32s-3 2.9-5.52 2.09z" fill="#ffb573" style="transform-origin:140.265px 222.876px 0px"/>
<polygon class="animable" points="146.53 216.96 147.71 222.33 143.11 224.92 141.36 218.6" fill="#ffb573" style="transform-origin:144.535px 220.94px 0px"/>
<path class="animable" d="m92.39 235.34c1.91 2 10.2 3.2 10.2 3.2l5.24-11.37s-7.63-3.24-10.76-1.52-6.85 7.44-4.68 9.69z" fill="#0D6EFD" style="transform-origin:99.786px 231.843px 0px"/>
<g class="animable" opacity=".5" style="transform-origin:99.786px 231.843px 0px">
<path class="animable" d="m92.39 235.34c1.91 2 10.2 3.2 10.2 3.2l5.24-11.37s-7.63-3.24-10.76-1.52-6.85 7.44-4.68 9.69z" fill="#fff" style="transform-origin:99.786px 231.843px 0px"/>
</g>
<path class="animable" d="m199.14 292.7-2.93 0.27c-4 12.9-9.46 13-11.09 12.72-3-0.53-4.74-3.8-3.87-7.28 1.2-4.8 6.64-6.76 10.05-7.6-2.11-3.19-2.9-8.5-1.63-12a5.77 5.77 0 0 1 5.83-4.18 4.28 4.28 0 0 1 3.91 2c2.37 3.88-1.38 12.24-2.59 14.74zm-4.69-2.89c1.75-3.78 3.52-9.47 2.25-11.54-0.2-0.33-0.41-0.67-1.44-0.7a2.51 2.51 0 0 0-2.67 2c-1.12 3.11 0.03 8.2 1.86 10.24zm-10 8.64c-0.05 0.15-0.09 0.3-0.13 0.45-0.5 2 0.45 3.69 1.63 3.9s4.37-1.53 7-9.46c-2.41 0.44-7.32 1.73-8.55 5.11z" fill="#263238" style="transform-origin:190.603px 290.187px 0px"/>
<polygon class="animable" points="303.87 299.8 283.89 355.08 185 319.35 204.91 264.25" fill="#0D6EFD" style="transform-origin:244.435px 309.665px 0px"/>
<polygon class="animable" points="303.87 299.8 283.89 355.08 185 319.35 204.91 264.25" fill="#fff" opacity=".6" style="transform-origin:244.435px 309.665px 0px"/>
<polygon class="animable" points="199.87 278.19 198.24 282.69 297.2 318.24 298.82 313.75" fill="#263238" style="transform-origin:248.53px 298.215px 0px"/>
<polygon class="animable" points="287.89 344.02 286.69 347.32 187.74 311.76 188.93 308.47" fill="#263238" style="transform-origin:237.815px 327.895px 0px"/>
<polygon class="animable" points="291.83 333.12 283.89 355.08 185 319.35 192.87 297.56" opacity=".2" style="isolation:isolate;transform-origin:238.415px 326.32px 0px"/>
<path class="animable" d="M224.7,307l-1-2.25c-11.37.53-13-3.77-13.26-5.14-.44-2.54,1.65-4.85,4.67-5.16,4.14-.42,7.26,3.33,8.9,5.8a12.68,12.68,0,0,1,9-4.74h0a4.86,4.86,0,0,1,5,3.42,3.61,3.61,0,0,1-.5,3.69c-2.39,3-10.1,2.41-12.42,2.17Zm1-4.55c3.49.31,8.52.08,9.79-1.52.21-.26.42-.52.14-1.34a2.1,2.1,0,0,0-2.35-1.54h0A10.29,10.29,0,0,0,225.66,302.49ZM215.92,297l-.39,0c-1.71.18-2.8,1.42-2.62,2.41s2.46,3,9.5,2.86C221.39,300.53,219,297,215.92,297Z" fill="#263238" style="transform-origin:224.343px 300.709px 0px"/>
<polygon class="animable" points="249.08 337.5 199.52 337.5 199.52 303.46 248.92 303.46" fill="#0D6EFD" style="transform-origin:224.3px 320.48px 0px"/>
<polygon class="animable" points="249.08 337.5 199.52 337.5 199.52 303.46 248.92 303.46" fill="#fff" opacity=".4" style="transform-origin:224.3px 320.48px 0px"/>
<polygon class="animable" points="236.42 303.46 232.39 303.46 232.55 337.5 236.58 337.5" fill="#263238" style="transform-origin:234.485px 320.48px 0px"/>
<polygon class="animable" points="209.44 337.5 206.48 337.5 206.32 303.46 209.28 303.46" fill="#263238" style="transform-origin:207.88px 320.48px 0px"/>
<polygon class="animable" points="219.22 337.5 199.52 337.5 199.52 303.46 219.06 303.46" opacity=".2" style="isolation:isolate;transform-origin:209.37px 320.48px 0px"/>
<path class="animable" d="m236.81 343.22c-3.12 0.76-13.56 3-18.17-0.62a5.68 5.68 0 0 1-2.27-4.9c0.09-3.25 2.11-5.13 5.44-5.58 4.35-0.59 10.8 1.58 14.59 4.73 1.21-3.65 3.92-9.3 9.85-9.5 4.31-0.15 8.2 2.59 8.69 6.11 0.26 1.9-0.19 8-16.19 9.44l-0.49 3.24zm-14.22-7.66c-1.73 0.23-2.56 0.91-2.6 2.56a1.82 1.82 0 0 0 0.77 1.8c2.46 1.92 9.51 1.27 14.23 0.2-2.39-2.55-8.55-5.12-12.4-4.56zm16.82 3.72c9.84-1.08 12.17-4.09 12-5.64-0.19-1.38-2.23-2.86-4.68-2.77a4.91 4.91 0 0 0-0.55 0c-4.25 0.61-6.11 5.84-6.77 8.41z" fill="#263238" style="transform-origin:235.671px 336.742px 0px"/>
<rect class="animable" x="206.71" y="339.22" width="63" height="23.03" fill="#0D6EFD" style="transform-origin:238.21px 350.735px 0px;transform:rotate(-7.68deg)"/>
<rect class="animable" x="206.71" y="339.22" width="63" height="23.03" fill="#fff" opacity=".4" style="transform-origin:238.21px 350.735px 0px;transform:rotate(-7.68deg)"/>
<rect class="animable" x="244.51" y="336.69" width="25.03" height="23.03" fill="#fff" opacity=".2" style="transform-origin:257.025px 348.205px 0px;transform:rotate(-7.68deg)"/>
<rect class="animable" x="222.72" y="340.97" width="5.12" height="23.03" fill="#263238" style="transform-origin:225.28px 352.485px 0px;transform:rotate(-7.68deg)"/>
<rect class="animable" x="256.92" y="336.45" width="3.76" height="23.03" fill="#263238" style="transform-origin:258.8px 347.965px 0px;transform:rotate(-7.68deg)"/>
<path class="animable" d="m183.93 300.24-1.43 1.24c-4.35-10.65-9.86-19-18.38-21.39l1.43-1.23c8.12 2.14 13.79 10.41 18.38 21.38z" fill="#263238" style="transform-origin:174.025px 290.17px 0px"/>
<path class="animable" d="m183.93 300.24-1.43 1.24c-4.35-10.65-9.86-19-18.38-21.39l1.43-1.23c8.12 2.14 13.79 10.41 18.38 21.38z" fill="#fff" opacity=".5" style="transform-origin:174.025px 290.17px 0px"/>
<path class="animable" d="m178.36 300.34-2 1.42c-4.12-8.32-3.62-12.59-13.88-19l1.95-1.42c10.26 6.89 10.26 11.15 13.93 19z" fill="#263238" style="transform-origin:170.42px 291.55px 0px"/>
<path class="animable" d="m178.36 300.34-2 1.42c-4.12-8.32-3.62-12.59-13.88-19l1.95-1.42c10.26 6.89 10.26 11.15 13.93 19z" fill="#fff" opacity=".5" style="transform-origin:170.42px 291.55px 0px"/>
<path class="animable" d="m303.33 300.3h-126.85a2.45 2.45 0 0 0-2.23 3.47l29.43 64.62a2.48 2.48 0 0 0 2.6 1.41l92.72-13.8a2.46 2.46 0 0 0 2.08-2.2l4.69-50.8a2.45 2.45 0 0 0-2.44-2.7zm-0.34 4-4.46 48.7a2.35 2.35 0 0 1-2 2.11l-88.83 13.22a2.36 2.36 0 0 1-2.49-1.35l-28.21-61.89a2.35 2.35 0 0 1 2.13-3.33h121.5a2.35 2.35 0 0 1 2.37 2.57z" fill="#263238" style="transform-origin:239.905px 335.063px 0px"/>
<polygon class="animable" points="213.58 368.36 211.73 368.36 181.59 300.3 183.43 300.3" fill="#263238" style="transform-origin:197.585px 334.33px 0px"/>
<polygon class="animable" points="221.88 367.05 220.04 367.05 191.21 300.3 193.06 300.3" fill="#263238" style="transform-origin:206.545px 333.675px 0px"/>
<polygon class="animable" points="229.57 365.74 227.73 365.74 202.83 300.3 204.68 300.3" fill="#263238" style="transform-origin:216.2px 333.02px 0px"/>
<polygon class="animable" points="237.8 364.36 235.96 364.36 213.58 300.3 215.42 300.3" fill="#263238" style="transform-origin:225.69px 332.33px 0px"/>
<polygon class="animable" points="245.26 363.36 243.42 363.36 224.81 300.3 226.65 300.3" fill="#263238" style="transform-origin:235.035px 331.83px 0px"/>
<polygon class="animable" points="253.68 362.13 251.84 362.13 235.34 300.3 237.19 300.3" fill="#263238" style="transform-origin:244.51px 331.215px 0px"/>
<polygon class="animable" points="261.62 360.67 259.78 360.67 246.19 300.3 248.03 300.3" fill="#263238" style="transform-origin:253.905px 330.485px 0px"/>
<polygon class="animable" points="269.95 359.74 268.1 359.74 257.18 300.3 259.03 300.3" fill="#263238" style="transform-origin:263.565px 330.02px 0px"/>
<polygon class="animable" points="277.87 358.74 276.02 358.74 268.49 300.3 270.33 300.3" fill="#263238" style="transform-origin:273.18px 329.52px 0px"/>
<polygon class="animable" points="285.79 357.28 283.94 357.28 279.52 300.3 281.37 300.3" fill="#263238" style="transform-origin:282.655px 328.79px 0px"/>
<polygon class="animable" points="293.94 356.51 292.1 356.51 290.94 300.3 292.79 300.3" fill="#263238" style="transform-origin:292.44px 328.405px 0px"/>
<polygon class="animable" points="303 319.68 303 321.52 185.2 326.83 185.2 324.98" fill="#263238" style="transform-origin:244.1px 323.255px 0px"/>
<polygon class="animable" points="301.52 339 301.52 340.85 196.51 352.32 196.51 350.48" fill="#263238" style="transform-origin:249.015px 345.66px 0px"/>
<path class="animable" d="m213.58 409.6a6.62 6.62 0 1 1-6.58-6.6 6.61 6.61 0 0 1 6.58 6.6z" fill="#0D6EFD" style="transform-origin:206.96px 409.62px 0px"/>
<path class="animable" d="M212,409.56a4.6,4.6,0,0,1-4.38,3.23,3.85,3.85,0,0,1-3.92-3.23L201.64,397h16.82l-2,7a3.47,3.47,0,0,1-.72,1.32Z" fill="#263238" style="transform-origin:210.05px 404.896px 0px"/>
<path class="animable" d="M212,409.56a4.6,4.6,0,0,1-4.38,3.23,3.85,3.85,0,0,1-3.92-3.23L201.64,397h16.82l-2,7a3.47,3.47,0,0,1-.72,1.32Z" fill="#fff" opacity=".3" style="transform-origin:210.05px 404.896px 0px"/>
<path class="animable" d="m276.89 409.6a6.62 6.62 0 1 0 6.61-6.6 6.61 6.61 0 0 0-6.61 6.6z" fill="#0D6EFD" style="transform-origin:283.51px 409.62px 0px"/>
<path class="animable" d="M278.46,409.56a4.62,4.62,0,0,0,4.39,3.23,3.85,3.85,0,0,0,3.92-3.23L288.83,397H272l2.05,7a3.34,3.34,0,0,0,.72,1.32Z" fill="#263238" style="transform-origin:280.415px 404.896px 0px"/>
<path class="animable" d="M278.46,409.56a4.62,4.62,0,0,0,4.39,3.23,3.85,3.85,0,0,0,3.92-3.23L288.83,397H272l2.05,7a3.34,3.34,0,0,0,.72,1.32Z" fill="#fff" opacity=".3" style="transform-origin:280.415px 404.896px 0px"/>
<path class="animable" d="M303.33,300.3H176.48a2.45,2.45,0,0,0-2.23,3.47l29.43,64.62a2.48,2.48,0,0,0,2.6,1.41L299,356a2.46,2.46,0,0,0,2.08-2.2L305.77,303A2.45,2.45,0,0,0,303.33,300.3Zm-2.68,1.46a2.35,2.35,0,0,1,2.34,2.57l-1.41,15.41-8.39.38-.37-18.36Zm-113.76,25,6.29-.28,10.3,23.25-5.84.63Zm8.1-.36,7.35-.33,9.8,22.71-6.9.75ZM273.87,342l-7,.76-3.57-19.48,8.15-.36Zm-.63-19.17,8-.36,1.44,18.56-7,.77ZM265,343l-7.21.79-4.51-20,8.12-.36Zm-9,1-7,.76-5.48-20.54,7.93-.36Zm-8.77.95-7.19.79-6.22-21.08,7.9-.36Zm-9,1-6.66.73-7.53-21.56,7.93-.36Zm-8.43.93-7.16.78-8.41-22.1,8-.36Zm-8.93,1-7,.77L204.15,326l8.31-.38Zm-8,2.72,6.9,16-6.61,1L206,351.28Zm1.76-.19,6.91-.76,6,15.78-6,.9Zm8.68-.95,7.11-.78,5.42,15.51-6.55,1Zm8.89-1,6.56-.72L243.32,363l-5.69.85Zm8.34-.91,7.15-.78,4,15-6.66,1Zm8.94-1,6.91-.75,3.32,14.78-6.24.93Zm8.71-.95,7.13-.78L268,359.33l-6.49,1Zm8.94-1,6.93-.75L276,358.14l-6.13.92Zm8.75-1,6.91-.76L283.92,357l-6.16.92Zm8.74-1,7.14-.78.28,13.83-6.34.94Zm-.14-1.83-1.44-18.44,8.31-.37.37,18Zm8.71-18.9,8.18-.37-1.61,17.6-6.2.68ZM291,301.76l.38,18.44-8.41.38-1.46-18.82Zm-11.33,0,1.46,18.9L273,321l-2.49-19.27Zm-11,0,2.49,19.35-8.25.37-3.62-19.72Zm-11.23,0,3.64,19.81-8.19.36-4.54-20.17Zm-10.93,0L251.08,322l-8,.36-5.5-20.62Zm-10.79,0,5.52,20.7-7.95.36-6.21-21.06Zm-10.49,0,6.24,21.14-8,.36-7.51-21.5Zm-11.15,0,7.54,21.58-8,.36-8.34-21.94Zm-10.7,0,8.38,22-8.4.38-9.68-22.41Zm-11.54,0,9.7,22.49-7.36.33-10.11-22.82Zm-12.7,0h3.09l10.14,22.9-6.32.28-9-19.85A2.35,2.35,0,0,1,179.15,301.76ZM205.21,367l-6.77-14.87,5.82-.63,7.21,16.29-3.77.56A2.36,2.36,0,0,1,205.21,367Zm93.32-14a2.35,2.35,0,0,1-2,2.11l-2.62.39-.28-13.75,6-.65Z" fill="#fff" opacity=".6" style="transform-origin:239.905px 335.063px 0px"/>
<path class="animable" d="m156.66 279.87 7.56 4.37 3.33-5.76-7.55-4.37a3.32 3.32 0 0 0-4.54 1.22 3.32 3.32 0 0 0 1.2 4.54z" fill="#0D6EFD" style="transform-origin:161.28px 278.952px 0px"/>
<rect class="animable" x="243.94" y="346.88" width="3.58" height="98.44" fill="#263238" style="transform-origin:245.73px 396.1px 0px;transform:rotate(-90deg)"/>
<rect class="animable" x="220.55" y="360.33" width="3.58" height="17.79" fill="#263238" style="transform-origin:222.34px 369.225px 0px;transform:rotate(-98.81deg)"/>
<path class="animable" d="M194.13,392.38c-.7.89.38,2.24,2.38,1.93v3.58c-6.71.23-8-4.5-5-7.89Z" fill="#263238" style="transform-origin:193.246px 393.949px 0px"/>
<path class="animable" d="M210.51,374a5.38,5.38,0,0,1,3.31-1.68l-.54-3.54a9.72,9.72,0,0,0-5.43,2.84Z" fill="#263238" style="transform-origin:210.835px 371.39px 0px"/>
<rect class="animable" x="243.94" y="346.88" width="3.58" height="98.44" fill="#263238" style="transform-origin:245.73px 396.1px 0px;transform:rotate(-90deg)"/>
<rect class="animable" x="220.55" y="360.33" width="3.58" height="17.79" fill="#263238" style="transform-origin:222.34px 369.225px 0px;transform:rotate(-98.81deg)"/>
<path class="animable" d="M194.13,392.38c-.7.89.38,2.24,2.38,1.93v3.58c-6.71.23-8-4.5-5-7.89Z" fill="#263238" style="transform-origin:193.246px 393.949px 0px"/>
<path class="animable" d="M210.51,374a5.38,5.38,0,0,1,3.31-1.68l-.54-3.54a9.72,9.72,0,0,0-5.43,2.84Z" fill="#263238" style="transform-origin:210.835px 371.39px 0px"/>
<rect class="animable" x="199.2" y="369.72" width="3.58" height="24.59" fill="#263238" style="transform-origin:200.99px 382.015px 0px;transform:rotate(-138.23deg)"/>
<rect class="animable" x="199.2" y="369.72" width="3.58" height="24.59" fill="#263238" style="transform-origin:200.99px 382.015px 0px;transform:rotate(-138.23deg)"/>
<path class="animable" d="m196.51 394.31c-2 0.31-3.08-1-2.38-1.93l16.38-18.38a5.38 5.38 0 0 1 3.31-1.68l17.59-2.73-0.55-3.53-17.58 2.72a9.72 9.72 0 0 0-5.43 2.84l-16.38 18.38c-3 3.39-1.67 8.12 5 7.89h98.43v-3.58z" fill="#fff" opacity=".4" style="transform-origin:242.425px 381.979px 0px"/>
</g>
</svg>
